<?xml version="1.0" encoding="UTF-8" standalone="no"?>
<!DOCTYPE svg PUBLIC "-//W3C//DTD SVG 1.1//EN" "http://www.w3.org/Graphics/SVG/1.1/DTD/svg11.dtd">
<svg xmlns="http://www.w3.org/2000/svg" version="1.1" viewBox="0.00 0.00 640.00 284.00">
<g stroke-width="2.00" fill="none" stroke-linecap="butt">
<path stroke="#fecf8d" vector-effect="non-scaling-stroke" d="
  M 545.26 19.03
  C 566.13 21.05 578.94 38.26 583.24 57.35
  A 0.22 0.22 0.0 0 0 583.67 57.30
  C 583.55 32.94 570.60 11.16 544.48 9.28
  C 517.54 7.35 500.78 24.90 497.73 50.98
  Q 497.32 54.47 497.64 57.90
  A 0.12 0.12 0.0 0 0 497.87 57.91
  C 503.10 34.40 519.52 16.55 545.26 19.03"
/>
<path stroke="#fecf8d" vector-effect="non-scaling-stroke" d="
  M 553.97 44.13
  C 561.51 48.49 566.61 57.91 568.74 66.01
  A 0.21 0.20 -54.6 0 0 569.14 65.94
  C 568.31 54.10 564.76 43.36 553.50 37.27
  Q 543.89 32.08 533.34 35.11
  C 519.14 39.19 512.44 51.80 512.42 65.70
  A 0.20 0.20 0.0 0 0 512.81 65.75
  C 515.01 56.15 520.88 46.88 529.89 42.80
  C 537.41 39.40 546.65 39.89 553.97 44.13"
/>
<path stroke="#fecf8d" vector-effect="non-scaling-stroke" d="
  M 542.01 57.87
  C 550.64 58.84 555.26 66.74 557.80 74.14
  A 0.16 0.16 0.0 0 0 558.11 74.08
  C 557.46 64.24 553.76 55.47 543.00 53.55
  C 530.92 51.40 523.17 62.89 523.40 73.70
  A 0.18 0.18 0.0 0 0 523.76 73.75
  C 526.29 65.60 532.51 56.80 542.01 57.87"
/>
<path stroke="#929090" vector-effect="non-scaling-stroke" d="
  M 577.18 181.66
  C 576.70 170.53 578.29 158.66 579.06 147.49
  A 1.32 1.32 0.0 0 0 578.06 146.11
  Q 576.74 145.79 576.53 147.50
  Q 573.70 170.32 574.53 193.28
  C 574.58 194.74 575.41 196.79 576.19 197.77
  Q 585.78 209.90 596.70 220.52
  Q 598.14 221.91 599.24 220.24
  Q 600.72 217.97 599.11 216.14
  Q 591.69 207.68 583.77 199.68
  C 578.87 194.72 579.01 190.77 582.10 184.41
  C 584.82 178.82 587.10 172.48 587.35 166.21
  C 587.47 162.86 587.48 158.38 591.75 157.51
  Q 601.23 155.59 606.22 147.96
  C 610.90 140.83 612.80 131.37 608.95 123.65
  Q 604.53 114.79 592.96 114.69
  Q 592.37 114.68 592.42 114.09
  C 593.30 103.80 593.00 94.51 589.25 84.53
  C 588.43 82.35 584.73 80.55 582.16 80.27
  Q 540.82 75.68 501.32 80.97
  C 493.64 82.00 491.73 87.17 489.77 94.34
  Q 485.87 108.59 489.67 123.17
  A 1.66 1.65 77.1 0 1 488.39 125.22
  C 478.48 127.21 484.38 141.67 487.73 146.77
  Q 492.94 154.72 498.72 162.28
  Q 501.09 165.40 504.46 165.57
  A 1.15 1.14 -14.1 0 1 505.35 166.10
  Q 506.05 167.19 506.09 169.00
  Q 506.32 180.78 506.29 191.54
  A 5.56 5.56 0.0 0 1 504.65 195.46
  Q 494.76 205.31 484.64 215.91
  Q 483.07 217.56 484.13 220.06
  A 1.60 1.60 0.0 0 0 486.75 220.55
  L 510.17 196.47
  A 3.99 3.98 66.8 0 0 511.30 193.64
  Q 511.12 179.28 510.88 164.39
  Q 510.85 162.44 509.78 161.41
  A 1.10 1.09 -26.5 0 0 508.87 161.11
  Q 504.25 161.75 502.18 158.81
  C 497.65 152.36 486.59 140.10 487.64 131.46
  Q 487.70 130.95 488.15 130.69
  C 492.26 128.28 494.28 130.34 495.24 134.35
  C 498.10 146.24 503.85 156.89 516.61 159.74
  Q 520.84 160.69 529.13 161.06
  C 541.63 161.61 553.49 159.30 563.25 150.99
  Q 572.72 142.92 579.49 129.80
  Q 581.42 126.05 583.40 124.38
  C 593.86 115.59 608.27 119.94 605.87 135.50
  C 604.02 147.48 597.25 151.47 586.41 153.56
  C 584.44 153.94 582.78 155.21 582.86 157.22
  Q 583.40 170.97 577.81 181.80
  Q 577.23 182.92 577.18 181.66"
/>
<path stroke="#929090" vector-effect="non-scaling-stroke" d="
  M 31.89 124.34
  L 31.79 181.16
  A 0.74 0.74 0.0 0 0 32.53 181.90
  L 86.78 181.99
  A 15.25 15.23 0.1 0 0 102.06 166.79
  L 102.10 138.95
  A 15.25 15.23 0.1 0 0 86.88 123.69
  L 32.63 123.60
  A 0.74 0.74 0.0 0 0 31.89 124.34"
/>
<path stroke="#929090" vector-effect="non-scaling-stroke" d="
  M 124.10 132.65
  A 0.40 0.40 0.0 0 1 124.50 132.25
  L 176.59 132.25
  A 0.40 0.40 0.0 0 0 176.99 131.85
  L 176.99 124.12
  A 0.40 0.40 0.0 0 0 176.59 123.72
  L 115.29 123.71
  A 0.40 0.40 0.0 0 0 114.89 124.11
  L 114.92 181.51
  A 0.40 0.40 0.0 0 0 115.32 181.91
  L 178.86 181.90
  A 0.40 0.40 0.0 0 0 179.26 181.50
  L 179.25 173.67
  A 0.40 0.40 0.0 0 0 178.85 173.27
  L 124.58 173.27
  A 0.40 0.40 0.0 0 1 124.18 172.87
  L 124.10 157.63
  A 0.40 0.40 0.0 0 1 124.50 157.23
  L 176.57 157.21
  A 0.40 0.40 0.0 0 0 176.97 156.81
  L 177.01 148.95
  A 0.40 0.40 0.0 0 0 176.61 148.55
  L 124.60 148.55
  A 0.40 0.40 0.0 0 1 124.20 148.15
  L 124.10 132.65"
/>
<path stroke="#929090" vector-effect="non-scaling-stroke" d="
  M 255.96 123.73
  A 0.39 0.39 0.0 0 0 255.64 123.91
  L 225.70 169.90
  A 0.39 0.39 0.0 0 1 225.04 169.90
  L 195.14 123.91
  A 0.39 0.39 0.0 0 0 194.82 123.73
  L 184.83 123.65
  A 0.39 0.39 0.0 0 0 184.50 124.25
  L 221.88 181.74
  A 0.39 0.39 0.0 0 0 222.21 181.92
  L 228.55 181.91
  A 0.39 0.39 0.0 0 0 228.88 181.73
  L 266.24 124.28
  A 0.39 0.39 0.0 0 0 265.91 123.67
  L 255.96 123.73"
/>
<path stroke="#fecf8d" vector-effect="non-scaling-stroke" d="
  M 396.56 169.25
  L 384.28 181.42
  A 0.30 0.30 0.0 0 0 384.49 181.93
  L 395.47 181.97
  A 1.41 1.37 22.3 0 0 396.44 181.58
  L 402.93 175.22"
/>
<path stroke="#929090" vector-effect="non-scaling-stroke" d="
  M 402.93 175.22
  L 409.18 181.62
  A 0.79 0.78 68.3 0 0 409.71 181.85
  L 420.55 182.00
  A 0.45 0.45 0.0 0 0 420.87 181.23
  L 408.91 169.36"
/>
<path stroke="#fecf8d" vector-effect="non-scaling-stroke" d="
  M 408.91 169.36
  L 418.79 159.32
  Q 419.22 158.89 419.65 159.32
  L 442.29 181.67
  A 0.99 0.99 0.0 0 0 442.99 181.96
  L 453.75 182.00
  A 0.48 0.48 0.0 0 0 454.10 181.18
  L 426.06 153.42
  A 0.81 0.81 0.0 0 1 426.06 152.26
  L 454.10 124.35
  A 0.46 0.45 -68.8 0 0 453.76 123.57
  C 450.15 123.73 443.66 122.59 441.00 125.23
  Q 430.39 135.74 419.83 146.14
  A 0.88 0.87 44.5 0 1 418.61 146.14
  L 408.69 136.69"
/>
<path stroke="#929090" vector-effect="non-scaling-stroke" d="
  M 408.69 136.69
  L 420.84 124.52
  A 0.49 0.49 0.0 0 0 420.49 123.69
  L 409.78 123.72
  Q 409.26 123.73 408.89 124.09
  L 402.43 130.42"
/>
<path stroke="#fecf8d" vector-effect="non-scaling-stroke" d="
  M 402.43 130.42
  Q 400.12 127.45 397.55 124.93
  C 395.28 122.70 387.95 123.69 384.75 123.57
  A 0.45 0.44 -21.7 0 0 384.42 124.33
  L 396.60 136.16"
/>
<path stroke="#929090" vector-effect="non-scaling-stroke" d="
  M 396.60 136.16
  L 386.59 146.30
  Q 386.16 146.73 385.73 146.31
  L 363.21 124.12
  Q 362.83 123.75 362.30 123.74
  L 351.52 123.66
  A 0.32 0.32 0.0 0 0 351.29 124.21
  L 379.62 152.42
  A 0.52 0.51 45.4 0 1 379.62 153.15
  L 351.43 181.17
  A 0.43 0.43 0.0 0 0 351.73 181.90
  L 361.85 181.89
  A 2.49 2.46 22.4 0 0 363.59 181.18
  L 385.74 159.20
  Q 386.16 158.79 386.57 159.20
  L 396.56 169.25"
/>
<path stroke="#91601e" vector-effect="non-scaling-stroke" d="
  M 396.60 136.16
  L 402.43 130.42"
/>
<path stroke="#91601e" vector-effect="non-scaling-stroke" d="
  M 408.69 136.69
  L 403.07 142.28"
/>
<path stroke="#929090" vector-effect="non-scaling-stroke" d="
  M 403.07 142.28
  L 392.74 152.38
  Q 392.31 152.80 392.73 153.23
  L 402.67 163.17"
/>
<path stroke="#91601e" vector-effect="non-scaling-stroke" d="
  M 402.67 163.17
  L 396.56 169.25"
/>
<path stroke="#91601e" vector-effect="non-scaling-stroke" d="
  M 408.91 169.36
  L 402.93 175.22"
/>
<path stroke="#fecf8d" vector-effect="non-scaling-stroke" d="
  M 402.67 163.17
  L 412.62 153.21
  A 0.75 0.75 0.0 0 0 412.63 152.16
  L 403.07 142.28"
/>
<path stroke="#929090" vector-effect="non-scaling-stroke" d="
  M 461.22 125.66
  L 461.38 131.71
  A 0.55 0.55 0.0 0 0 462.16 132.19
  Q 463.00 131.78 462.91 130.48
  Q 462.80 128.76 463.02 125.41
  Q 463.06 124.85 463.58 125.04
  Q 464.74 125.45 465.18 124.25
  A 0.45 0.45 0.0 0 0 464.76 123.64
  L 459.26 123.63
  A 0.49 0.49 0.0 0 0 458.81 124.33
  Q 459.28 125.35 460.37 125.04
  A 0.66 0.66 0.0 0 1 461.22 125.66"
/>
<path stroke="#929090" vector-effect="non-scaling-stroke" d="
  M 468.69 127.24
  L 469.51 131.00
  A 1.05 1.04 -40.0 0 0 471.50 131.17
  C 472.04 129.85 471.67 128.39 472.52 127.14
  Q 472.81 126.70 472.85 127.23
  L 473.21 131.73
  A 0.65 0.65 0.0 0 0 474.50 131.68
  L 474.52 124.75
  A 1.36 1.36 0.0 0 0 471.85 124.40
  L 470.87 128.23
  Q 470.58 129.34 470.24 128.24
  L 468.96 124.14
  A 1.22 1.22 0.0 0 0 466.57 124.50
  L 466.54 131.48
  A 0.68 0.67 46.5 0 0 467.89 131.52
  L 468.07 127.29
  A 0.31 0.31 0.0 0 1 468.69 127.24"
/>
<path stroke="#929090" vector-effect="non-scaling-stroke" d="
  M 342.64 137.96
  A 14.23 14.23 0.0 0 0 328.41 123.73
  L 286.77 123.73
  A 14.23 14.23 0.0 0 0 272.54 137.96
  L 272.54 167.66
  A 14.23 14.23 0.0 0 0 286.77 181.89
  L 328.41 181.89
  A 14.23 14.23 0.0 0 0 342.64 167.66
  L 342.64 137.96"
/>
<path stroke="#929090" vector-effect="non-scaling-stroke" d="
  M 591.4856 143.5203
  A 8.84 7.31 97.7 0 0 599.9141 135.7394
  A 8.84 7.31 97.7 0 0 593.8544 125.9997
  A 8.84 7.31 97.7 0 0 585.4259 133.7806
  A 8.84 7.31 97.7 0 0 591.4856 143.5203"
/>
<path stroke="#929090" vector-effect="non-scaling-stroke" d="
  M 44.32 196.48
  L 44.24 190.47
  A 0.54 0.54 0.0 0 0 43.23 190.22
  Q 42.95 190.74 42.95 191.50
  Q 42.97 200.63 43.01 209.76
  Q 43.01 210.15 43.40 210.24
  Q 43.59 210.28 43.78 210.25
  Q 44.25 210.19 44.25 209.72
  L 44.32 198.79
  A 0.79 0.77 82.9 0 1 44.90 198.03
  C 47.06 197.45 51.97 195.44 51.97 199.77
  Q 51.99 204.82 52.04 209.87
  Q 52.04 210.26 52.43 210.26
  Q 52.58 210.26 52.72 210.26
  Q 53.22 210.26 53.24 209.76
  Q 53.51 201.19 53.15 198.74
  C 52.46 194.18 47.78 196.16 44.99 196.97
  Q 44.33 197.16 44.32 196.48"
/>
<path stroke="#929090" vector-effect="non-scaling-stroke" d="
  M 85.86 197.10
  C 77.57 192.40 76.89 200.51 77.86 206.24
  C 78.61 210.61 81.39 210.62 84.84 209.60
  Q 86.33 209.16 87.63 210.03
  Q 88.11 210.34 88.10 209.77
  L 87.93 190.23
  A 0.43 0.42 83.3 0 0 87.42 189.82
  L 87.11 189.88
  Q 86.70 189.97 86.69 190.39
  L 86.57 196.70
  Q 86.55 197.49 85.86 197.10"
/>
<path stroke="#929090" vector-effect="non-scaling-stroke" d="
  M 293.8986 191.8298
  A 1.02 0.67 91.2 0 0 294.5899 190.8240
  A 1.02 0.67 91.2 0 0 293.9414 189.7902
  A 1.02 0.67 91.2 0 0 293.2501 190.7960
  A 1.02 0.67 91.2 0 0 293.8986 191.8298"
/>
<path stroke="#929090" vector-effect="non-scaling-stroke" d="
  M 371.51 197.47
  L 375.55 197.38
  Q 375.98 197.37 375.94 196.95
  L 375.92 196.65
  Q 375.87 196.11 375.33 196.13
  L 371.43 196.24
  A 0.75 0.75 0.0 0 1 370.67 195.42
  L 370.97 192.22
  A 1.01 0.99 82.5 0 1 371.60 191.38
  Q 373.34 190.70 374.82 191.68
  A 0.69 0.69 0.0 0 0 375.73 191.54
  Q 376.15 191.02 375.63 190.66
  Q 372.85 188.79 370.09 190.81
  Q 369.73 191.07 369.67 191.51
  L 369.12 195.36
  A 0.85 0.85 0.0 0 1 368.85 195.88
  L 368.09 196.56
  A 0.52 0.52 0.0 0 0 368.25 197.43
  L 368.69 197.61
  A 0.97 0.96 -79.3 0 1 369.30 198.51
  L 369.30 209.70
  A 0.61 0.59 14.1 0 0 369.63 210.23
  Q 370.62 210.72 370.60 209.51
  Q 370.50 203.77 370.91 198.04
  Q 370.95 197.48 371.51 197.47"
/>
<path stroke="#929090" vector-effect="non-scaling-stroke" d="
  M 132.2632 190.6425
  A 0.67 0.67 0.0 0 0 131.5955 189.9702
  L 131.5355 189.9700
  A 0.67 0.67 0.0 0 0 130.8632 190.6376
  L 130.7968 209.6375
  A 0.67 0.67 0.0 0 0 131.4645 210.3098
  L 131.5245 210.3100
  A 0.67 0.67 0.0 0 0 132.1968 209.6424
  L 132.2632 190.6425"
/>
<path stroke="#929090" vector-effect="non-scaling-stroke" d="
  M 301.05 195.76
  L 300.96 191.78
  A 0.42 0.42 0.0 0 0 300.12 191.72
  L 299.41 195.73
  Q 299.35 196.07 299.01 196.16
  L 298.18 196.38
  A 0.41 0.40 -40.0 0 0 298.11 197.14
  L 299.10 197.58
  Q 299.62 197.81 299.62 198.38
  L 299.68 208.43
  A 1.28 1.28 0.0 0 0 300.36 209.56
  Q 303.21 211.12 306.04 209.48
  A 0.52 0.52 0.0 0 0 305.97 208.55
  Q 305.52 208.38 305.02 208.66
  C 302.51 210.05 301.01 208.87 301.01 206.16
  Q 301.00 202.08 300.99 197.94
  Q 300.99 197.41 301.52 197.39
  L 304.05 197.25
  Q 304.59 197.22 304.51 196.69
  L 304.47 196.40
  A 0.49 0.49 0.0 0 0 303.91 195.99
  L 301.77 196.36
  Q 301.07 196.47 301.05 195.76"
/>
<path stroke="#929090" vector-effect="non-scaling-stroke" d="
  M 35.08 195.75
  L 35.05 191.98
  A 0.40 0.40 0.0 0 0 34.26 191.91
  L 33.66 195.36
  Q 33.58 195.85 33.15 196.10
  L 32.63 196.42
  Q 31.98 196.81 32.65 197.14
  L 33.31 197.48
  Q 33.83 197.74 33.84 198.32
  L 33.90 208.10
  A 1.50 1.47 -67.6 0 0 34.32 209.14
  Q 36.56 211.41 39.96 209.55
  Q 40.41 209.31 40.22 208.80
  A 0.48 0.48 0.0 0 0 39.54 208.54
  Q 37.63 209.54 35.75 208.66
  A 1.00 1.00 0.0 0 1 35.19 207.78
  L 35.04 197.95
  Q 35.03 197.44 35.54 197.40
  L 38.35 197.21
  Q 38.79 197.18 38.74 196.74
  Q 38.72 196.59 38.71 196.44
  A 0.47 0.47 0.0 0 0 38.18 196.03
  L 35.75 196.33
  Q 35.08 196.42 35.08 195.75"
/>
<path stroke="#929090" vector-effect="non-scaling-stroke" d="
  M 109.19 206.26
  L 105.71 196.32
  A 0.66 0.66 0.0 0 0 104.42 196.52
  Q 104.41 196.85 104.58 197.29
  Q 106.98 203.54 109.21 209.95
  A 0.39 0.39 0.0 0 0 109.94 209.95
  L 114.72 196.42
  A 0.59 0.57 -81.2 0 0 114.17 195.63
  Q 113.99 195.64 113.71 195.86
  Q 113.51 196.02 113.42 196.29
  Q 111.76 201.31 109.93 206.27
  Q 109.55 207.29 109.19 206.26"
/>
<path stroke="#929090" vector-effect="non-scaling-stroke" d="
  M 356.47 198.13
  C 358.17 197.52 360.57 196.81 362.37 197.53
  A 1.09 1.08 -82.3 0 1 363.06 198.45
  Q 363.55 203.93 363.28 209.43
  A 0.61 0.55 -60.7 0 0 363.34 209.69
  Q 364.02 210.92 364.60 210.23
  Q 364.75 210.05 364.78 209.74
  C 365.04 206.97 366.45 193.53 360.24 195.79
  Q 356.77 197.04 354.49 196.25
  Q 354.20 196.15 354.21 196.45
  Q 354.36 202.98 354.41 209.50
  Q 354.42 210.93 355.59 210.16
  A 0.85 0.84 73.5 0 0 355.97 209.45
  L 355.88 198.96
  Q 355.88 198.34 356.47 198.13"
/>
<path stroke="#929090" vector-effect="non-scaling-stroke" d="
  M 58.75 203.56
  L 66.94 203.66
  Q 67.49 203.66 67.57 203.11
  C 68.25 198.37 64.84 193.89 59.80 196.22
  C 54.09 198.85 55.62 214.69 65.81 209.37
  Q 66.08 209.23 66.38 209.21
  Q 67.11 209.17 67.13 208.30
  A 0.43 0.43 0.0 0 0 66.50 207.92
  Q 63.48 209.56 60.13 208.78
  Q 59.67 208.67 59.39 208.30
  Q 57.91 206.39 58.26 203.98
  Q 58.32 203.55 58.75 203.56"
/>
<path stroke="#929090" vector-effect="non-scaling-stroke" d="
  M 93.78 203.52
  L 101.96 203.65
  Q 102.45 203.66 102.54 203.17
  C 103.36 198.46 100.27 194.63 95.49 195.92
  C 90.62 197.23 91.39 204.27 92.40 208.00
  A 1.71 1.69 -82.4 0 0 93.16 209.01
  Q 97.52 211.61 101.94 208.89
  A 0.38 0.37 -15.8 0 0 102.12 208.57
  L 102.14 208.21
  A 0.42 0.42 0.0 0 0 101.51 207.83
  Q 98.30 209.76 94.77 208.59
  A 1.18 1.12 82.3 0 1 94.17 208.11
  Q 92.96 206.21 93.27 203.95
  Q 93.33 203.51 93.78 203.52"
/>
<path stroke="#929090" vector-effect="non-scaling-stroke" d="
  M 118.54 203.55
  L 126.73 203.60
  Q 127.26 203.60 127.36 203.08
  C 128.17 199.01 126.00 195.51 121.62 195.73
  C 116.02 196.01 115.79 203.51 117.10 207.14
  C 118.61 211.34 123.35 210.62 126.62 209.13
  Q 127.30 208.81 126.96 208.21
  Q 126.71 207.78 126.28 207.99
  C 122.63 209.74 117.23 209.78 118.11 203.91
  Q 118.17 203.54 118.54 203.55"
/>
<path stroke="#929090" vector-effect="non-scaling-stroke" d="
  M 146.58 200.69
  A 4.87 4.87 0.0 0 0 141.71 195.82
  L 140.65 195.82
  A 4.87 4.87 0.0 0 0 135.78 200.69
  L 135.78 205.37
  A 4.87 4.87 0.0 0 0 140.65 210.24
  L 141.71 210.24
  A 4.87 4.87 0.0 0 0 146.58 205.37
  L 146.58 200.69"
/>
<path stroke="#929090" vector-effect="non-scaling-stroke" d="
  M 151.42 196.61
  L 150.57 195.96
  Q 150.10 195.60 150.10 196.19
  L 150.20 215.66
  A 0.47 0.46 -84.8 0 0 150.58 216.12
  L 151.07 216.21
  Q 151.49 216.29 151.49 215.86
  L 151.52 209.56
  A 0.42 0.42 0.0 0 1 152.16 209.20
  C 156.43 211.64 160.22 210.29 160.47 205.15
  Q 160.56 203.20 160.55 200.26
  C 160.51 194.36 155.94 195.81 152.32 196.79
  Q 151.82 196.92 151.42 196.61"
/>
<path stroke="#929090" vector-effect="non-scaling-stroke" d="
  M 165.72 203.57
  L 173.69 203.66
  Q 174.23 203.67 174.34 203.14
  C 175.26 198.47 172.47 195.06 167.77 195.72
  C 161.05 196.66 161.20 215.74 173.76 209.01
  Q 174.23 208.76 173.90 208.15
  Q 173.65 207.69 173.19 207.94
  C 169.81 209.76 164.06 209.70 165.14 204.04
  Q 165.23 203.56 165.72 203.57"
/>
<path stroke="#929090" vector-effect="non-scaling-stroke" d="
  M 179.17 197.22
  L 178.43 195.90
  A 0.39 0.39 0.0 0 0 177.70 196.12
  Q 178.23 202.76 177.97 209.43
  Q 177.96 209.83 178.13 210.04
  Q 178.38 210.35 178.81 210.28
  Q 179.28 210.20 179.28 209.73
  L 179.36 200.26
  A 2.05 2.05 0.0 0 1 180.65 198.37
  L 184.16 196.98
  Q 184.69 196.77 184.45 196.26
  L 184.29 195.91
  A 0.55 0.54 -25.4 0 0 183.57 195.66
  L 179.81 197.42
  Q 179.40 197.62 179.17 197.22"
/>
<path stroke="#929090" vector-effect="non-scaling-stroke" d="
  M 196.44 197.56
  Q 199.74 196.40 202.75 198.18
  A 0.33 0.32 -65.1 0 0 203.22 198.00
  Q 203.25 197.88 203.29 197.76
  Q 203.47 197.18 202.93 196.87
  Q 199.01 194.68 195.14 196.81
  A 1.67 1.66 -3.8 0 0 194.39 197.66
  C 192.09 203.57 192.50 211.94 201.55 209.93
  Q 202.89 209.63 203.80 208.74
  A 0.53 0.52 -81.0 0 0 203.19 207.90
  C 194.43 212.50 193.53 203.56 195.69 198.28
  A 1.26 1.25 1.0 0 1 196.44 197.56"
/>
<path stroke="#929090" vector-effect="non-scaling-stroke" d="
  M 217.3922 200.6985
  A 4.89 4.89 0.0 0 0 212.5278 195.7829
  L 211.4479 195.7773
  A 4.89 4.89 0.0 0 0 206.5323 200.6416
  L 206.5078 205.3215
  A 4.89 4.89 0.0 0 0 211.3722 210.2371
  L 212.4521 210.2427
  A 4.89 4.89 0.0 0 0 217.3677 205.3784
  L 217.3922 200.6985"
/>
<path stroke="#929090" vector-effect="non-scaling-stroke" d="
  M 231.09 198.22
  C 233.45 197.07 237.62 195.91 237.67 200.25
  Q 237.73 205.00 237.82 209.75
  Q 237.83 210.25 238.30 210.28
  A 0.58 0.58 0.0 0 0 238.91 209.73
  Q 239.21 204.56 238.90 199.42
  C 238.59 194.08 233.64 196.07 230.71 196.98
  A 1.10 1.10 0.0 0 1 229.77 196.85
  Q 226.57 194.79 223.22 196.98
  Q 222.75 197.28 222.34 196.91
  L 221.31 195.96
  A 0.34 0.34 0.0 0 0 220.74 196.21
  L 220.86 209.73
  A 0.59 0.58 -0.5 0 0 221.46 210.31
  Q 221.59 210.31 221.72 210.31
  Q 222.25 210.30 222.25 209.77
  L 222.29 198.99
  Q 222.29 198.43 222.79 198.20
  C 225.18 197.10 229.46 195.96 229.30 200.26
  Q 229.12 205.08 229.36 209.93
  A 0.49 0.49 0.0 0 0 230.08 210.34
  Q 230.68 210.02 230.69 209.25
  Q 230.79 204.13 230.63 198.98
  Q 230.61 198.45 231.09 198.22"
/>
<path stroke="#929090" vector-effect="non-scaling-stroke" d="
  M 244.14 196.62
  L 243.40 195.93
  Q 242.83 195.40 242.83 196.18
  L 242.97 209.67
  Q 242.98 210.14 243.44 210.24
  L 243.79 210.31
  Q 244.26 210.41 244.26 209.94
  L 244.33 199.01
  A 0.82 0.81 -12.5 0 1 244.81 198.27
  C 247.22 197.12 251.58 195.82 251.25 200.50
  Q 251.11 202.47 251.46 210.02
  A 0.31 0.31 0.0 0 0 251.75 210.32
  Q 251.94 210.34 252.13 210.36
  A 0.43 0.42 3.6 0 0 252.61 209.94
  L 252.63 199.01
  Q 252.63 198.32 253.29 198.14
  L 257.14 197.07
  A 1.95 1.95 0.0 0 1 259.61 198.92
  L 259.75 209.69
  Q 259.75 210.05 260.08 210.18
  Q 260.22 210.23 260.36 210.25
  Q 260.96 210.29 260.98 209.69
  Q 261.15 204.59 260.93 199.51
  C 260.70 194.01 255.47 196.06 252.49 197.03
  Q 252.01 197.18 251.63 196.86
  C 249.41 195.03 247.37 196.17 244.97 196.83
  Q 244.49 196.96 244.14 196.62"
/>
<path stroke="#929090" vector-effect="non-scaling-stroke" d="
  M 273.86 209.66
  L 274.27 210.03
  Q 275.02 210.71 275.01 209.69
  L 274.87 196.19
  Q 274.87 195.79 274.48 195.69
  Q 274.34 195.66 274.20 195.60
  A 0.48 0.47 -79.2 0 0 273.56 196.04
  L 273.49 207.51
  Q 273.49 208.06 272.96 208.23
  C 271.07 208.80 266.26 210.51 266.30 206.66
  Q 266.34 201.43 266.07 196.22
  Q 266.04 195.73 265.56 195.76
  Q 265.32 195.77 265.16 195.93
  Q 264.95 196.12 264.92 196.63
  Q 264.71 200.11 264.83 205.74
  C 264.96 211.41 269.12 210.48 272.89 209.43
  Q 273.44 209.28 273.86 209.66"
/>
<path stroke="#929090" vector-effect="non-scaling-stroke" d="
  M 280.97 197.96
  L 285.81 196.84
  A 0.74 0.71 59.8 0 1 286.48 197.03
  C 288.91 199.37 288.00 206.49 287.99 209.76
  Q 287.99 210.17 288.40 210.24
  Q 288.56 210.27 288.73 210.25
  Q 289.22 210.20 289.22 209.71
  Q 289.30 205.41 289.25 201.07
  C 289.18 196.08 287.34 194.91 282.64 196.59
  Q 280.80 197.24 279.25 196.07
  Q 278.88 195.80 278.89 196.26
  L 279.04 209.90
  Q 279.05 210.29 279.44 210.27
  Q 279.59 210.27 279.74 210.26
  A 0.51 0.51 0.0 0 0 280.25 209.75
  L 280.28 198.82
  Q 280.28 198.12 280.97 197.96"
/>
<path stroke="#929090" vector-effect="non-scaling-stroke" d="
  M 294.5533 196.3022
  A 0.57 0.57 0.0 0 0 293.9853 195.7303
  L 293.8653 195.7298
  A 0.57 0.57 0.0 0 0 293.2934 196.2978
  L 293.2467 209.6778
  A 0.57 0.57 0.0 0 0 293.8147 210.2497
  L 293.9347 210.2502
  A 0.57 0.57 0.0 0 0 294.5066 209.6822
  L 294.5533 196.3022"
/>
<path stroke="#929090" vector-effect="non-scaling-stroke" d="
  M 312.56 206.52
  Q 310.62 201.91 309.20 197.10
  Q 308.92 196.16 308.42 195.86
  A 0.59 0.59 0.0 0 0 307.57 196.57
  L 311.87 208.16
  Q 312.06 208.65 311.87 209.14
  Q 310.50 212.73 307.60 214.86
  Q 307.23 215.13 307.20 215.71
  A 0.38 0.38 0.0 0 0 307.78 216.05
  C 313.45 212.48 315.10 204.63 317.69 196.98
  Q 317.99 196.09 317.51 195.77
  A 0.54 0.53 -63.5 0 0 316.71 196.04
  L 313.06 206.50
  Q 312.83 207.15 312.56 206.52"
/>
<path stroke="#929090" vector-effect="non-scaling-stroke" d="
  M 330.05 197.52
  Q 333.30 196.56 336.27 198.20
  Q 336.69 198.44 336.75 197.96
  L 336.79 197.58
  Q 336.85 197.06 336.39 196.80
  C 333.16 194.96 328.64 195.10 327.34 199.29
  Q 325.88 203.98 328.07 208.78
  A 1.45 1.40 88.0 0 0 328.84 209.52
  Q 333.08 211.26 337.08 209.05
  A 0.70 0.68 68.2 0 0 337.41 208.25
  Q 337.31 207.90 337.00 207.81
  Q 336.79 207.74 336.49 207.90
  C 327.77 212.46 327.11 203.19 329.22 198.25
  A 1.30 1.28 3.4 0 1 330.05 197.52"
/>
<path stroke="#929090" vector-effect="non-scaling-stroke" d="
  M 350.9682 200.7192
  A 4.90 4.90 0.0 0 0 346.0854 195.8022
  L 344.8654 195.7979
  A 4.90 4.90 0.0 0 0 339.9483 200.6808
  L 339.9318 205.4208
  A 4.90 4.90 0.0 0 0 344.8146 210.3378
  L 346.0346 210.3421
  A 4.90 4.90 0.0 0 0 350.9517 205.4592
  L 350.9682 200.7192"
/>
<path stroke="#929090" vector-effect="non-scaling-stroke" d="
  M 379.05 203.51
  L 387.23 203.64
  A 0.71 0.71 0.0 0 0 387.95 202.97
  C 388.34 197.03 384.47 193.89 378.86 196.62
  A 1.48 1.40 -89.2 0 0 378.19 197.31
  Q 375.56 203.03 378.18 208.82
  A 1.08 1.08 0.0 0 0 378.74 209.38
  Q 383.10 211.37 387.23 208.94
  A 0.46 0.46 0.0 0 0 387.39 208.29
  L 387.24 208.06
  Q 387.03 207.72 386.68 207.91
  C 383.22 209.77 377.61 209.61 378.53 203.95
  Q 378.61 203.51 379.05 203.51"
/>
<path stroke="#929090" vector-effect="non-scaling-stroke" d="
  M 392.67 197.14
  L 391.80 196.00
  A 0.29 0.29 0.0 0 0 391.28 196.18
  L 391.62 209.91
  Q 391.63 210.14 391.83 210.21
  Q 392.07 210.30 392.33 210.25
  A 0.59 0.57 85.1 0 0 392.79 209.69
  L 392.83 199.63
  Q 392.83 198.99 393.42 198.74
  L 397.66 196.93
  Q 397.92 196.82 397.88 196.54
  L 397.85 196.28
  Q 397.70 195.23 396.74 195.69
  L 393.40 197.31
  Q 392.96 197.53 392.67 197.14"
/>
<path stroke="#929090" vector-effect="non-scaling-stroke" d="
  M 401.64 203.56
  L 409.63 203.64
  Q 410.08 203.65 410.17 203.21
  C 411.93 194.63 400.43 192.41 399.52 201.23
  C 398.97 206.53 400.05 211.63 407.01 209.89
  Q 408.79 209.45 409.62 208.91
  Q 409.82 208.78 409.86 208.60
  Q 409.91 208.42 409.83 208.25
  Q 409.61 207.75 409.13 207.99
  C 405.55 209.75 399.77 209.78 401.15 203.95
  Q 401.24 203.56 401.64 203.56"
/>
<path stroke="#929090" vector-effect="non-scaling-stroke" d="
  M 415.59 197.96
  L 419.78 196.99
  A 2.39 2.38 83.3 0 1 422.70 199.30
  L 422.75 209.81
  Q 422.75 210.15 423.08 210.21
  L 423.42 210.28
  Q 423.95 210.38 423.97 209.84
  C 424.11 206.38 425.49 195.81 420.53 195.71
  Q 419.47 195.68 415.91 196.87
  A 0.82 0.80 -34.6 0 1 415.15 196.74
  L 414.13 195.93
  Q 413.62 195.53 413.63 196.18
  L 413.80 209.69
  Q 413.80 210.14 414.25 210.22
  L 414.58 210.27
  Q 415.03 210.35 415.03 209.90
  L 415.04 198.65
  Q 415.04 198.09 415.59 197.96"
/>
<path stroke="#929090" vector-effect="non-scaling-stroke" d="
  M 429.07 206.24
  C 428.19 200.88 428.81 194.32 436.53 198.09
  Q 436.95 198.30 437.26 197.94
  Q 437.68 197.45 437.19 197.12
  C 433.13 194.34 428.29 195.49 427.56 200.69
  C 426.85 205.73 427.86 211.84 434.74 209.99
  C 435.75 209.72 437.11 209.63 437.84 208.62
  A 0.50 0.50 0.0 0 0 437.19 207.89
  C 434.78 209.23 429.73 210.22 429.07 206.24"
/>
<path stroke="#929090" vector-effect="non-scaling-stroke" d="
  M 442.68 203.52
  L 450.79 203.62
  Q 451.30 203.63 451.36 203.13
  C 451.86 199.13 449.63 194.92 445.25 195.65
  C 440.31 196.48 439.96 201.38 440.69 205.47
  C 441.68 210.99 446.09 211.35 450.39 209.14
  Q 451.07 208.79 450.94 208.23
  Q 450.81 207.67 450.30 207.93
  C 446.88 209.65 440.90 209.94 442.07 204.01
  Q 442.17 203.51 442.68 203.52"
/>
<path stroke="#929090" vector-effect="non-scaling-stroke" d="
  M 572.4096 84.4407
  A 30.42 1.28 -0.3 0 0 541.9833 83.3200
  A 30.42 1.28 -0.3 0 0 511.5704 84.7593
  A 30.42 1.28 -0.3 0 0 541.9967 85.8800
  A 30.42 1.28 -0.3 0 0 572.4096 84.4407"
/>
<path stroke="#929090" vector-effect="non-scaling-stroke" d="
  M 577.08 128.31
  C 579.45 123.48 580.84 121.09 585.95 119.03
  A 1.04 1.03 85.7 0 0 586.58 118.29
  Q 589.95 103.40 585.73 88.79
  A 1.72 1.72 0.0 0 0 583.56 87.63
  Q 576.89 89.74 569.49 90.04
  Q 543.36 91.12 517.21 90.59
  C 510.39 90.45 503.98 89.73 497.44 88.74
  A 0.73 0.73 0.0 0 0 496.66 89.18
  Q 491.24 102.02 493.13 115.51
  Q 494.89 128.06 500.90 142.19
  C 506.91 156.32 515.44 157.38 529.42 158.27
  C 552.45 159.75 567.45 147.86 577.08 128.31"
/>
<path stroke="#929090" vector-effect="non-scaling-stroke" d="
  M 86.13 173.23
  C 89.52 173.23 92.47 171.78 92.51 168.00
  Q 92.65 153.88 92.71 139.74
  C 92.75 131.58 87.49 132.31 80.79 132.29
  Q 61.39 132.22 41.92 132.29
  Q 41.43 132.29 41.43 132.78
  L 41.43 172.81
  Q 41.43 173.40 42.02 173.40
  Q 64.25 173.26 86.13 173.23"
/>
<path stroke="#929090" vector-effect="non-scaling-stroke" d="
  M 333.29 138.07
  A 5.77 5.77 0.0 0 0 327.52 132.30
  L 287.60 132.30
  A 5.77 5.77 0.0 0 0 281.83 138.07
  L 281.83 167.49
  A 5.77 5.77 0.0 0 0 287.60 173.26
  L 327.52 173.26
  A 5.77 5.77 0.0 0 0 333.29 167.49
  L 333.29 138.07"
/>
<path stroke="#929090" vector-effect="non-scaling-stroke" d="
  M 591.8477 140.7118
  A 5.98 4.53 98.0 0 0 597.1659 135.4205
  A 5.98 4.53 98.0 0 0 593.5123 128.8682
  A 5.98 4.53 98.0 0 0 588.1941 134.1595
  A 5.98 4.53 98.0 0 0 591.8477 140.7118"
/>
<path stroke="#929090" vector-effect="non-scaling-stroke" d="
  M 86.6128 199.9538
  A 2.88 2.88 0.0 0 0 83.6979 197.1092
  L 81.8580 197.1317
  A 2.88 2.88 0.0 0 0 79.0134 200.0466
  L 79.0872 206.0862
  A 2.88 2.88 0.0 0 0 82.0021 208.9308
  L 83.8420 208.9083
  A 2.88 2.88 0.0 0 0 86.6866 205.9934
  L 86.6128 199.9538"
/>
<path stroke="#929090" vector-effect="non-scaling-stroke" d="
  M 58.92 202.52
  L 65.42 202.48
  A 0.84 0.84 0.0 0 0 66.25 201.63
  L 66.25 200.97
  A 4.06 3.69 89.6 0 0 62.53 196.94
  L 61.73 196.94
  A 4.06 3.69 89.6 0 0 58.07 201.03
  L 58.07 201.69
  A 0.84 0.84 0.0 0 0 58.92 202.52"
/>
<path stroke="#929090" vector-effect="non-scaling-stroke" d="
  M 93.82 202.46
  L 100.46 202.52
  A 0.79 0.79 0.0 0 0 101.25 201.74
  L 101.25 201.47
  A 4.56 3.87 -89.5 0 0 97.42 196.87
  L 96.94 196.87
  A 4.56 3.87 -89.5 0 0 93.03 201.39
  L 93.03 201.66
  A 0.79 0.79 0.0 0 0 93.82 202.46"
/>
<path stroke="#929090" vector-effect="non-scaling-stroke" d="
  M 118.83 202.51
  L 125.29 202.49
  A 0.85 0.85 0.0 0 0 126.14 201.64
  L 126.14 200.99
  A 4.08 3.69 89.9 0 0 122.45 196.92
  L 121.67 196.92
  A 4.08 3.69 89.9 0 0 117.98 201.01
  L 117.98 201.66
  A 0.85 0.85 0.0 0 0 118.83 202.51"
/>
<path stroke="#929090" vector-effect="non-scaling-stroke" d="
  M 145.19 200.75
  A 3.76 3.76 0.0 0 0 141.43 196.99
  L 140.87 196.99
  A 3.76 3.76 0.0 0 0 137.11 200.75
  L 137.11 205.37
  A 3.76 3.76 0.0 0 0 140.87 209.13
  L 141.43 209.13
  A 3.76 3.76 0.0 0 0 145.19 205.37
  L 145.19 200.75"
/>
<path stroke="#929090" vector-effect="non-scaling-stroke" d="
  M 159.2016 199.7634
  A 2.59 2.59 0.0 0 0 156.6207 197.1644
  L 154.1207 197.1557
  A 2.59 2.59 0.0 0 0 151.5216 199.7366
  L 151.4984 206.3966
  A 2.59 2.59 0.0 0 0 154.0793 208.9956
  L 156.5793 209.0043
  A 2.59 2.59 0.0 0 0 159.1784 206.4234
  L 159.2016 199.7634"
/>
<path stroke="#929090" vector-effect="non-scaling-stroke" d="
  M 165.77 202.47
  L 172.31 202.49
  A 0.74 0.74 0.0 0 0 173.05 201.75
  L 173.05 201.17
  A 4.24 3.74 -89.9 0 0 169.31 196.92
  L 168.77 196.92
  A 4.24 3.74 -89.9 0 0 165.03 201.15
  L 165.03 201.73
  A 0.74 0.74 0.0 0 0 165.77 202.47"
/>
<path stroke="#929090" vector-effect="non-scaling-stroke" d="
  M 215.9622 200.7310
  A 3.68 3.68 0.0 0 0 212.3015 197.0318
  L 211.6415 197.0284
  A 3.68 3.68 0.0 0 0 207.9423 200.6890
  L 207.9178 205.3690
  A 3.68 3.68 0.0 0 0 211.5785 209.0682
  L 212.2385 209.0716
  A 3.68 3.68 0.0 0 0 215.9377 205.4110
  L 215.9622 200.7310"
/>
<path stroke="#929090" vector-effect="non-scaling-stroke" d="
  M 349.3924 200.6706
  A 3.57 3.57 0.0 0 0 345.8411 197.0820
  L 345.1211 197.0782
  A 3.57 3.57 0.0 0 0 341.5325 200.6295
  L 341.5076 205.3694
  A 3.57 3.57 0.0 0 0 345.0589 208.9580
  L 345.7789 208.9618
  A 3.57 3.57 0.0 0 0 349.3675 205.4105
  L 349.3924 200.6706"
/>
<path stroke="#929090" vector-effect="non-scaling-stroke" d="
  M 379.05 202.38
  L 385.85 202.46
  A 0.62 0.62 0.0 0 0 386.47 201.85
  L 386.48 201.08
  A 3.99 3.33 -89.3 0 0 383.20 197.05
  L 381.82 197.03
  A 3.99 3.33 -89.3 0 0 378.44 200.98
  L 378.44 201.75
  A 0.62 0.62 0.0 0 0 379.05 202.38"
/>
<path stroke="#929090" vector-effect="non-scaling-stroke" d="
  M 401.59 202.50
  L 408.25 202.50
  A 0.75 0.75 0.0 0 0 409.00 201.75
  L 409.00 201.45
  A 4.59 3.83 90.0 0 0 405.17 196.86
  L 404.67 196.86
  A 4.59 3.83 -90.0 0 0 400.84 201.45
  L 400.84 201.75
  A 0.75 0.75 0.0 0 0 401.59 202.50"
/>
<path stroke="#929090" vector-effect="non-scaling-stroke" d="
  M 442.60 202.48
  L 449.26 202.52
  A 0.75 0.75 0.0 0 0 450.02 201.78
  L 450.02 201.14
  A 4.27 3.84 -89.6 0 0 446.21 196.84
  L 445.73 196.84
  A 4.27 3.84 -89.6 0 0 441.86 201.08
  L 441.86 201.72
  A 0.75 0.75 0.0 0 0 442.60 202.48"
/>
</g>
<path fill="#ffffff" d="
  M 0.00 0.00
  L 640.00 0.00
  L 640.00 284.00
  L 0.00 284.00
  L 0.00 0.00
  Z
  M 545.26 19.03
  C 566.13 21.05 578.94 38.26 583.24 57.35
  A 0.22 0.22 0.0 0 0 583.67 57.30
  C 583.55 32.94 570.60 11.16 544.48 9.28
  C 517.54 7.35 500.78 24.90 497.73 50.98
  Q 497.32 54.47 497.64 57.90
  A 0.12 0.12 0.0 0 0 497.87 57.91
  C 503.10 34.40 519.52 16.55 545.26 19.03
  Z
  M 553.97 44.13
  C 561.51 48.49 566.61 57.91 568.74 66.01
  A 0.21 0.20 -54.6 0 0 569.14 65.94
  C 568.31 54.10 564.76 43.36 553.50 37.27
  Q 543.89 32.08 533.34 35.11
  C 519.14 39.19 512.44 51.80 512.42 65.70
  A 0.20 0.20 0.0 0 0 512.81 65.75
  C 515.01 56.15 520.88 46.88 529.89 42.80
  C 537.41 39.40 546.65 39.89 553.97 44.13
  Z
  M 542.01 57.87
  C 550.64 58.84 555.26 66.74 557.80 74.14
  A 0.16 0.16 0.0 0 0 558.11 74.08
  C 557.46 64.24 553.76 55.47 543.00 53.55
  C 530.92 51.40 523.17 62.89 523.40 73.70
  A 0.18 0.18 0.0 0 0 523.76 73.75
  C 526.29 65.60 532.51 56.80 542.01 57.87
  Z
  M 577.18 181.66
  C 576.70 170.53 578.29 158.66 579.06 147.49
  A 1.32 1.32 0.0 0 0 578.06 146.11
  Q 576.74 145.79 576.53 147.50
  Q 573.70 170.32 574.53 193.28
  C 574.58 194.74 575.41 196.79 576.19 197.77
  Q 585.78 209.90 596.70 220.52
  Q 598.14 221.91 599.24 220.24
  Q 600.72 217.97 599.11 216.14
  Q 591.69 207.68 583.77 199.68
  C 578.87 194.72 579.01 190.77 582.10 184.41
  C 584.82 178.82 587.10 172.48 587.35 166.21
  C 587.47 162.86 587.48 158.38 591.75 157.51
  Q 601.23 155.59 606.22 147.96
  C 610.90 140.83 612.80 131.37 608.95 123.65
  Q 604.53 114.79 592.96 114.69
  Q 592.37 114.68 592.42 114.09
  C 593.30 103.80 593.00 94.51 589.25 84.53
  C 588.43 82.35 584.73 80.55 582.16 80.27
  Q 540.82 75.68 501.32 80.97
  C 493.64 82.00 491.73 87.17 489.77 94.34
  Q 485.87 108.59 489.67 123.17
  A 1.66 1.65 77.1 0 1 488.39 125.22
  C 478.48 127.21 484.38 141.67 487.73 146.77
  Q 492.94 154.72 498.72 162.28
  Q 501.09 165.40 504.46 165.57
  A 1.15 1.14 -14.1 0 1 505.35 166.10
  Q 506.05 167.19 506.09 169.00
  Q 506.32 180.78 506.29 191.54
  A 5.56 5.56 0.0 0 1 504.65 195.46
  Q 494.76 205.31 484.64 215.91
  Q 483.07 217.56 484.13 220.06
  A 1.60 1.60 0.0 0 0 486.75 220.55
  L 510.17 196.47
  A 3.99 3.98 66.8 0 0 511.30 193.64
  Q 511.12 179.28 510.88 164.39
  Q 510.85 162.44 509.78 161.41
  A 1.10 1.09 -26.5 0 0 508.87 161.11
  Q 504.25 161.75 502.18 158.81
  C 497.65 152.36 486.59 140.10 487.64 131.46
  Q 487.70 130.95 488.15 130.69
  C 492.26 128.28 494.28 130.34 495.24 134.35
  C 498.10 146.24 503.85 156.89 516.61 159.74
  Q 520.84 160.69 529.13 161.06
  C 541.63 161.61 553.49 159.30 563.25 150.99
  Q 572.72 142.92 579.49 129.80
  Q 581.42 126.05 583.40 124.38
  C 593.86 115.59 608.27 119.94 605.87 135.50
  C 604.02 147.48 597.25 151.47 586.41 153.56
  C 584.44 153.94 582.78 155.21 582.86 157.22
  Q 583.40 170.97 577.81 181.80
  Q 577.23 182.92 577.18 181.66
  Z
  M 31.89 124.34
  L 31.79 181.16
  A 0.74 0.74 0.0 0 0 32.53 181.90
  L 86.78 181.99
  A 15.25 15.23 0.1 0 0 102.06 166.79
  L 102.10 138.95
  A 15.25 15.23 0.1 0 0 86.88 123.69
  L 32.63 123.60
  A 0.74 0.74 0.0 0 0 31.89 124.34
  Z
  M 124.10 132.65
  A 0.40 0.40 0.0 0 1 124.50 132.25
  L 176.59 132.25
  A 0.40 0.40 0.0 0 0 176.99 131.85
  L 176.99 124.12
  A 0.40 0.40 0.0 0 0 176.59 123.72
  L 115.29 123.71
  A 0.40 0.40 0.0 0 0 114.89 124.11
  L 114.92 181.51
  A 0.40 0.40 0.0 0 0 115.32 181.91
  L 178.86 181.90
  A 0.40 0.40 0.0 0 0 179.26 181.50
  L 179.25 173.67
  A 0.40 0.40 0.0 0 0 178.85 173.27
  L 124.58 173.27
  A 0.40 0.40 0.0 0 1 124.18 172.87
  L 124.10 157.63
  A 0.40 0.40 0.0 0 1 124.50 157.23
  L 176.57 157.21
  A 0.40 0.40 0.0 0 0 176.97 156.81
  L 177.01 148.95
  A 0.40 0.40 0.0 0 0 176.61 148.55
  L 124.60 148.55
  A 0.40 0.40 0.0 0 1 124.20 148.15
  L 124.10 132.65
  Z
  M 255.96 123.73
  A 0.39 0.39 0.0 0 0 255.64 123.91
  L 225.70 169.90
  A 0.39 0.39 0.0 0 1 225.04 169.90
  L 195.14 123.91
  A 0.39 0.39 0.0 0 0 194.82 123.73
  L 184.83 123.65
  A 0.39 0.39 0.0 0 0 184.50 124.25
  L 221.88 181.74
  A 0.39 0.39 0.0 0 0 222.21 181.92
  L 228.55 181.91
  A 0.39 0.39 0.0 0 0 228.88 181.73
  L 266.24 124.28
  A 0.39 0.39 0.0 0 0 265.91 123.67
  L 255.96 123.73
  Z
  M 396.56 169.25
  L 384.28 181.42
  A 0.30 0.30 0.0 0 0 384.49 181.93
  L 395.47 181.97
  A 1.41 1.37 22.3 0 0 396.44 181.58
  L 402.93 175.22
  L 409.18 181.62
  A 0.79 0.78 68.3 0 0 409.71 181.85
  L 420.55 182.00
  A 0.45 0.45 0.0 0 0 420.87 181.23
  L 408.91 169.36
  L 418.79 159.32
  Q 419.22 158.89 419.65 159.32
  L 442.29 181.67
  A 0.99 0.99 0.0 0 0 442.99 181.96
  L 453.75 182.00
  A 0.48 0.48 0.0 0 0 454.10 181.18
  L 426.06 153.42
  A 0.81 0.81 0.0 0 1 426.06 152.26
  L 454.10 124.35
  A 0.46 0.45 -68.8 0 0 453.76 123.57
  C 450.15 123.73 443.66 122.59 441.00 125.23
  Q 430.39 135.74 419.83 146.14
  A 0.88 0.87 44.5 0 1 418.61 146.14
  L 408.69 136.69
  L 420.84 124.52
  A 0.49 0.49 0.0 0 0 420.49 123.69
  L 409.78 123.72
  Q 409.26 123.73 408.89 124.09
  L 402.43 130.42
  Q 400.12 127.45 397.55 124.93
  C 395.28 122.70 387.95 123.69 384.75 123.57
  A 0.45 0.44 -21.7 0 0 384.42 124.33
  L 396.60 136.16
  L 386.59 146.30
  Q 386.16 146.73 385.73 146.31
  L 363.21 124.12
  Q 362.83 123.75 362.30 123.74
  L 351.52 123.66
  A 0.32 0.32 0.0 0 0 351.29 124.21
  L 379.62 152.42
  A 0.52 0.51 45.4 0 1 379.62 153.15
  L 351.43 181.17
  A 0.43 0.43 0.0 0 0 351.73 181.90
  L 361.85 181.89
  A 2.49 2.46 22.4 0 0 363.59 181.18
  L 385.74 159.20
  Q 386.16 158.79 386.57 159.20
  L 396.56 169.25
  Z
  M 461.22 125.66
  L 461.38 131.71
  A 0.55 0.55 0.0 0 0 462.16 132.19
  Q 463.00 131.78 462.91 130.48
  Q 462.80 128.76 463.02 125.41
  Q 463.06 124.85 463.58 125.04
  Q 464.74 125.45 465.18 124.25
  A 0.45 0.45 0.0 0 0 464.76 123.64
  L 459.26 123.63
  A 0.49 0.49 0.0 0 0 458.81 124.33
  Q 459.28 125.35 460.37 125.04
  A 0.66 0.66 0.0 0 1 461.22 125.66
  Z
  M 468.69 127.24
  L 469.51 131.00
  A 1.05 1.04 -40.0 0 0 471.50 131.17
  C 472.04 129.85 471.67 128.39 472.52 127.14
  Q 472.81 126.70 472.85 127.23
  L 473.21 131.73
  A 0.65 0.65 0.0 0 0 474.50 131.68
  L 474.52 124.75
  A 1.36 1.36 0.0 0 0 471.85 124.40
  L 470.87 128.23
  Q 470.58 129.34 470.24 128.24
  L 468.96 124.14
  A 1.22 1.22 0.0 0 0 466.57 124.50
  L 466.54 131.48
  A 0.68 0.67 46.5 0 0 467.89 131.52
  L 468.07 127.29
  A 0.31 0.31 0.0 0 1 468.69 127.24
  Z
  M 342.64 137.96
  A 14.23 14.23 0.0 0 0 328.41 123.73
  L 286.77 123.73
  A 14.23 14.23 0.0 0 0 272.54 137.96
  L 272.54 167.66
  A 14.23 14.23 0.0 0 0 286.77 181.89
  L 328.41 181.89
  A 14.23 14.23 0.0 0 0 342.64 167.66
  L 342.64 137.96
  Z
  M 591.4856 143.5203
  A 8.84 7.31 97.7 0 0 599.9141 135.7394
  A 8.84 7.31 97.7 0 0 593.8544 125.9997
  A 8.84 7.31 97.7 0 0 585.4259 133.7806
  A 8.84 7.31 97.7 0 0 591.4856 143.5203
  Z
  M 44.32 196.48
  L 44.24 190.47
  A 0.54 0.54 0.0 0 0 43.23 190.22
  Q 42.95 190.74 42.95 191.50
  Q 42.97 200.63 43.01 209.76
  Q 43.01 210.15 43.40 210.24
  Q 43.59 210.28 43.78 210.25
  Q 44.25 210.19 44.25 209.72
  L 44.32 198.79
  A 0.79 0.77 82.9 0 1 44.90 198.03
  C 47.06 197.45 51.97 195.44 51.97 199.77
  Q 51.99 204.82 52.04 209.87
  Q 52.04 210.26 52.43 210.26
  Q 52.58 210.26 52.72 210.26
  Q 53.22 210.26 53.24 209.76
  Q 53.51 201.19 53.15 198.74
  C 52.46 194.18 47.78 196.16 44.99 196.97
  Q 44.33 197.16 44.32 196.48
  Z
  M 85.86 197.10
  C 77.57 192.40 76.89 200.51 77.86 206.24
  C 78.61 210.61 81.39 210.62 84.84 209.60
  Q 86.33 209.16 87.63 210.03
  Q 88.11 210.34 88.10 209.77
  L 87.93 190.23
  A 0.43 0.42 83.3 0 0 87.42 189.82
  L 87.11 189.88
  Q 86.70 189.97 86.69 190.39
  L 86.57 196.70
  Q 86.55 197.49 85.86 197.10
  Z
  M 293.8986 191.8298
  A 1.02 0.67 91.2 0 0 294.5899 190.8240
  A 1.02 0.67 91.2 0 0 293.9414 189.7902
  A 1.02 0.67 91.2 0 0 293.2501 190.7960
  A 1.02 0.67 91.2 0 0 293.8986 191.8298
  Z
  M 371.51 197.47
  L 375.55 197.38
  Q 375.98 197.37 375.94 196.95
  L 375.92 196.65
  Q 375.87 196.11 375.33 196.13
  L 371.43 196.24
  A 0.75 0.75 0.0 0 1 370.67 195.42
  L 370.97 192.22
  A 1.01 0.99 82.5 0 1 371.60 191.38
  Q 373.34 190.70 374.82 191.68
  A 0.69 0.69 0.0 0 0 375.73 191.54
  Q 376.15 191.02 375.63 190.66
  Q 372.85 188.79 370.09 190.81
  Q 369.73 191.07 369.67 191.51
  L 369.12 195.36
  A 0.85 0.85 0.0 0 1 368.85 195.88
  L 368.09 196.56
  A 0.52 0.52 0.0 0 0 368.25 197.43
  L 368.69 197.61
  A 0.97 0.96 -79.3 0 1 369.30 198.51
  L 369.30 209.70
  A 0.61 0.59 14.1 0 0 369.63 210.23
  Q 370.62 210.72 370.60 209.51
  Q 370.50 203.77 370.91 198.04
  Q 370.95 197.48 371.51 197.47
  Z
  M 132.2632 190.6425
  A 0.67 0.67 0.0 0 0 131.5955 189.9702
  L 131.5355 189.9700
  A 0.67 0.67 0.0 0 0 130.8632 190.6376
  L 130.7968 209.6375
  A 0.67 0.67 0.0 0 0 131.4645 210.3098
  L 131.5245 210.3100
  A 0.67 0.67 0.0 0 0 132.1968 209.6424
  L 132.2632 190.6425
  Z
  M 301.05 195.76
  L 300.96 191.78
  A 0.42 0.42 0.0 0 0 300.12 191.72
  L 299.41 195.73
  Q 299.35 196.07 299.01 196.16
  L 298.18 196.38
  A 0.41 0.40 -40.0 0 0 298.11 197.14
  L 299.10 197.58
  Q 299.62 197.81 299.62 198.38
  L 299.68 208.43
  A 1.28 1.28 0.0 0 0 300.36 209.56
  Q 303.21 211.12 306.04 209.48
  A 0.52 0.52 0.0 0 0 305.97 208.55
  Q 305.52 208.38 305.02 208.66
  C 302.51 210.05 301.01 208.87 301.01 206.16
  Q 301.00 202.08 300.99 197.94
  Q 300.99 197.41 301.52 197.39
  L 304.05 197.25
  Q 304.59 197.22 304.51 196.69
  L 304.47 196.40
  A 0.49 0.49 0.0 0 0 303.91 195.99
  L 301.77 196.36
  Q 301.07 196.47 301.05 195.76
  Z
  M 35.08 195.75
  L 35.05 191.98
  A 0.40 0.40 0.0 0 0 34.26 191.91
  L 33.66 195.36
  Q 33.58 195.85 33.15 196.10
  L 32.63 196.42
  Q 31.98 196.81 32.65 197.14
  L 33.31 197.48
  Q 33.83 197.74 33.84 198.32
  L 33.90 208.10
  A 1.50 1.47 -67.6 0 0 34.32 209.14
  Q 36.56 211.41 39.96 209.55
  Q 40.41 209.31 40.22 208.80
  A 0.48 0.48 0.0 0 0 39.54 208.54
  Q 37.63 209.54 35.75 208.66
  A 1.00 1.00 0.0 0 1 35.19 207.78
  L 35.04 197.95
  Q 35.03 197.44 35.54 197.40
  L 38.35 197.21
  Q 38.79 197.18 38.74 196.74
  Q 38.72 196.59 38.71 196.44
  A 0.47 0.47 0.0 0 0 38.18 196.03
  L 35.75 196.33
  Q 35.08 196.42 35.08 195.75
  Z
  M 109.19 206.26
  L 105.71 196.32
  A 0.66 0.66 0.0 0 0 104.42 196.52
  Q 104.41 196.85 104.58 197.29
  Q 106.98 203.54 109.21 209.95
  A 0.39 0.39 0.0 0 0 109.94 209.95
  L 114.72 196.42
  A 0.59 0.57 -81.2 0 0 114.17 195.63
  Q 113.99 195.64 113.71 195.86
  Q 113.51 196.02 113.42 196.29
  Q 111.76 201.31 109.93 206.27
  Q 109.55 207.29 109.19 206.26
  Z
  M 356.47 198.13
  C 358.17 197.52 360.57 196.81 362.37 197.53
  A 1.09 1.08 -82.3 0 1 363.06 198.45
  Q 363.55 203.93 363.28 209.43
  A 0.61 0.55 -60.7 0 0 363.34 209.69
  Q 364.02 210.92 364.60 210.23
  Q 364.75 210.05 364.78 209.74
  C 365.04 206.97 366.45 193.53 360.24 195.79
  Q 356.77 197.04 354.49 196.25
  Q 354.20 196.15 354.21 196.45
  Q 354.36 202.98 354.41 209.50
  Q 354.42 210.93 355.59 210.16
  A 0.85 0.84 73.5 0 0 355.97 209.45
  L 355.88 198.96
  Q 355.88 198.34 356.47 198.13
  Z
  M 58.75 203.56
  L 66.94 203.66
  Q 67.49 203.66 67.57 203.11
  C 68.25 198.37 64.84 193.89 59.80 196.22
  C 54.09 198.85 55.62 214.69 65.81 209.37
  Q 66.08 209.23 66.38 209.21
  Q 67.11 209.17 67.13 208.30
  A 0.43 0.43 0.0 0 0 66.50 207.92
  Q 63.48 209.56 60.13 208.78
  Q 59.67 208.67 59.39 208.30
  Q 57.91 206.39 58.26 203.98
  Q 58.32 203.55 58.75 203.56
  Z
  M 93.78 203.52
  L 101.96 203.65
  Q 102.45 203.66 102.54 203.17
  C 103.36 198.46 100.27 194.63 95.49 195.92
  C 90.62 197.23 91.39 204.27 92.40 208.00
  A 1.71 1.69 -82.4 0 0 93.16 209.01
  Q 97.52 211.61 101.94 208.89
  A 0.38 0.37 -15.8 0 0 102.12 208.57
  L 102.14 208.21
  A 0.42 0.42 0.0 0 0 101.51 207.83
  Q 98.30 209.76 94.77 208.59
  A 1.18 1.12 82.3 0 1 94.17 208.11
  Q 92.96 206.21 93.27 203.95
  Q 93.33 203.51 93.78 203.52
  Z
  M 118.54 203.55
  L 126.73 203.60
  Q 127.26 203.60 127.36 203.08
  C 128.17 199.01 126.00 195.51 121.62 195.73
  C 116.02 196.01 115.79 203.51 117.10 207.14
  C 118.61 211.34 123.35 210.62 126.62 209.13
  Q 127.30 208.81 126.96 208.21
  Q 126.71 207.78 126.28 207.99
  C 122.63 209.74 117.23 209.78 118.11 203.91
  Q 118.17 203.54 118.54 203.55
  Z
  M 146.58 200.69
  A 4.87 4.87 0.0 0 0 141.71 195.82
  L 140.65 195.82
  A 4.87 4.87 0.0 0 0 135.78 200.69
  L 135.78 205.37
  A 4.87 4.87 0.0 0 0 140.65 210.24
  L 141.71 210.24
  A 4.87 4.87 0.0 0 0 146.58 205.37
  L 146.58 200.69
  Z
  M 151.42 196.61
  L 150.57 195.96
  Q 150.10 195.60 150.10 196.19
  L 150.20 215.66
  A 0.47 0.46 -84.8 0 0 150.58 216.12
  L 151.07 216.21
  Q 151.49 216.29 151.49 215.86
  L 151.52 209.56
  A 0.42 0.42 0.0 0 1 152.16 209.20
  C 156.43 211.64 160.22 210.29 160.47 205.15
  Q 160.56 203.20 160.55 200.26
  C 160.51 194.36 155.94 195.81 152.32 196.79
  Q 151.82 196.92 151.42 196.61
  Z
  M 165.72 203.57
  L 173.69 203.66
  Q 174.23 203.67 174.34 203.14
  C 175.26 198.47 172.47 195.06 167.77 195.72
  C 161.05 196.66 161.20 215.74 173.76 209.01
  Q 174.23 208.76 173.90 208.15
  Q 173.65 207.69 173.19 207.94
  C 169.81 209.76 164.06 209.70 165.14 204.04
  Q 165.23 203.56 165.72 203.57
  Z
  M 179.17 197.22
  L 178.43 195.90
  A 0.39 0.39 0.0 0 0 177.70 196.12
  Q 178.23 202.76 177.97 209.43
  Q 177.96 209.83 178.13 210.04
  Q 178.38 210.35 178.81 210.28
  Q 179.28 210.20 179.28 209.73
  L 179.36 200.26
  A 2.05 2.05 0.0 0 1 180.65 198.37
  L 184.16 196.98
  Q 184.69 196.77 184.45 196.26
  L 184.29 195.91
  A 0.55 0.54 -25.4 0 0 183.57 195.66
  L 179.81 197.42
  Q 179.40 197.62 179.17 197.22
  Z
  M 196.44 197.56
  Q 199.74 196.40 202.75 198.18
  A 0.33 0.32 -65.1 0 0 203.22 198.00
  Q 203.25 197.88 203.29 197.76
  Q 203.47 197.18 202.93 196.87
  Q 199.01 194.68 195.14 196.81
  A 1.67 1.66 -3.8 0 0 194.39 197.66
  C 192.09 203.57 192.50 211.94 201.55 209.93
  Q 202.89 209.63 203.80 208.74
  A 0.53 0.52 -81.0 0 0 203.19 207.90
  C 194.43 212.50 193.53 203.56 195.69 198.28
  A 1.26 1.25 1.0 0 1 196.44 197.56
  Z
  M 217.3922 200.6985
  A 4.89 4.89 0.0 0 0 212.5278 195.7829
  L 211.4479 195.7773
  A 4.89 4.89 0.0 0 0 206.5323 200.6416
  L 206.5078 205.3215
  A 4.89 4.89 0.0 0 0 211.3722 210.2371
  L 212.4521 210.2427
  A 4.89 4.89 0.0 0 0 217.3677 205.3784
  L 217.3922 200.6985
  Z
  M 231.09 198.22
  C 233.45 197.07 237.62 195.91 237.67 200.25
  Q 237.73 205.00 237.82 209.75
  Q 237.83 210.25 238.30 210.28
  A 0.58 0.58 0.0 0 0 238.91 209.73
  Q 239.21 204.56 238.90 199.42
  C 238.59 194.08 233.64 196.07 230.71 196.98
  A 1.10 1.10 0.0 0 1 229.77 196.85
  Q 226.57 194.79 223.22 196.98
  Q 222.75 197.28 222.34 196.91
  L 221.31 195.96
  A 0.34 0.34 0.0 0 0 220.74 196.21
  L 220.86 209.73
  A 0.59 0.58 -0.5 0 0 221.46 210.31
  Q 221.59 210.31 221.72 210.31
  Q 222.25 210.30 222.25 209.77
  L 222.29 198.99
  Q 222.29 198.43 222.79 198.20
  C 225.18 197.10 229.46 195.96 229.30 200.26
  Q 229.12 205.08 229.36 209.93
  A 0.49 0.49 0.0 0 0 230.08 210.34
  Q 230.68 210.02 230.69 209.25
  Q 230.79 204.13 230.63 198.98
  Q 230.61 198.45 231.09 198.22
  Z
  M 244.14 196.62
  L 243.40 195.93
  Q 242.83 195.40 242.83 196.18
  L 242.97 209.67
  Q 242.98 210.14 243.44 210.24
  L 243.79 210.31
  Q 244.26 210.41 244.26 209.94
  L 244.33 199.01
  A 0.82 0.81 -12.5 0 1 244.81 198.27
  C 247.22 197.12 251.58 195.82 251.25 200.50
  Q 251.11 202.47 251.46 210.02
  A 0.31 0.31 0.0 0 0 251.75 210.32
  Q 251.94 210.34 252.13 210.36
  A 0.43 0.42 3.6 0 0 252.61 209.94
  L 252.63 199.01
  Q 252.63 198.32 253.29 198.14
  L 257.14 197.07
  A 1.95 1.95 0.0 0 1 259.61 198.92
  L 259.75 209.69
  Q 259.75 210.05 260.08 210.18
  Q 260.22 210.23 260.36 210.25
  Q 260.96 210.29 260.98 209.69
  Q 261.15 204.59 260.93 199.51
  C 260.70 194.01 255.47 196.06 252.49 197.03
  Q 252.01 197.18 251.63 196.86
  C 249.41 195.03 247.37 196.17 244.97 196.83
  Q 244.49 196.96 244.14 196.62
  Z
  M 273.86 209.66
  L 274.27 210.03
  Q 275.02 210.71 275.01 209.69
  L 274.87 196.19
  Q 274.87 195.79 274.48 195.69
  Q 274.34 195.66 274.20 195.60
  A 0.48 0.47 -79.2 0 0 273.56 196.04
  L 273.49 207.51
  Q 273.49 208.06 272.96 208.23
  C 271.07 208.80 266.26 210.51 266.30 206.66
  Q 266.34 201.43 266.07 196.22
  Q 266.04 195.73 265.56 195.76
  Q 265.32 195.77 265.16 195.93
  Q 264.95 196.12 264.92 196.63
  Q 264.71 200.11 264.83 205.74
  C 264.96 211.41 269.12 210.48 272.89 209.43
  Q 273.44 209.28 273.86 209.66
  Z
  M 280.97 197.96
  L 285.81 196.84
  A 0.74 0.71 59.8 0 1 286.48 197.03
  C 288.91 199.37 288.00 206.49 287.99 209.76
  Q 287.99 210.17 288.40 210.24
  Q 288.56 210.27 288.73 210.25
  Q 289.22 210.20 289.22 209.71
  Q 289.30 205.41 289.25 201.07
  C 289.18 196.08 287.34 194.91 282.64 196.59
  Q 280.80 197.24 279.25 196.07
  Q 278.88 195.80 278.89 196.26
  L 279.04 209.90
  Q 279.05 210.29 279.44 210.27
  Q 279.59 210.27 279.74 210.26
  A 0.51 0.51 0.0 0 0 280.25 209.75
  L 280.28 198.82
  Q 280.28 198.12 280.97 197.96
  Z
  M 294.5533 196.3022
  A 0.57 0.57 0.0 0 0 293.9853 195.7303
  L 293.8653 195.7298
  A 0.57 0.57 0.0 0 0 293.2934 196.2978
  L 293.2467 209.6778
  A 0.57 0.57 0.0 0 0 293.8147 210.2497
  L 293.9347 210.2502
  A 0.57 0.57 0.0 0 0 294.5066 209.6822
  L 294.5533 196.3022
  Z
  M 312.56 206.52
  Q 310.62 201.91 309.20 197.10
  Q 308.92 196.16 308.42 195.86
  A 0.59 0.59 0.0 0 0 307.57 196.57
  L 311.87 208.16
  Q 312.06 208.65 311.87 209.14
  Q 310.50 212.73 307.60 214.86
  Q 307.23 215.13 307.20 215.71
  A 0.38 0.38 0.0 0 0 307.78 216.05
  C 313.45 212.48 315.10 204.63 317.69 196.98
  Q 317.99 196.09 317.51 195.77
  A 0.54 0.53 -63.5 0 0 316.71 196.04
  L 313.06 206.50
  Q 312.83 207.15 312.56 206.52
  Z
  M 330.05 197.52
  Q 333.30 196.56 336.27 198.20
  Q 336.69 198.44 336.75 197.96
  L 336.79 197.58
  Q 336.85 197.06 336.39 196.80
  C 333.16 194.96 328.64 195.10 327.34 199.29
  Q 325.88 203.98 328.07 208.78
  A 1.45 1.40 88.0 0 0 328.84 209.52
  Q 333.08 211.26 337.08 209.05
  A 0.70 0.68 68.2 0 0 337.41 208.25
  Q 337.31 207.90 337.00 207.81
  Q 336.79 207.74 336.49 207.90
  C 327.77 212.46 327.11 203.19 329.22 198.25
  A 1.30 1.28 3.4 0 1 330.05 197.52
  Z
  M 350.9682 200.7192
  A 4.90 4.90 0.0 0 0 346.0854 195.8022
  L 344.8654 195.7979
  A 4.90 4.90 0.0 0 0 339.9483 200.6808
  L 339.9318 205.4208
  A 4.90 4.90 0.0 0 0 344.8146 210.3378
  L 346.0346 210.3421
  A 4.90 4.90 0.0 0 0 350.9517 205.4592
  L 350.9682 200.7192
  Z
  M 379.05 203.51
  L 387.23 203.64
  A 0.71 0.71 0.0 0 0 387.95 202.97
  C 388.34 197.03 384.47 193.89 378.86 196.62
  A 1.48 1.40 -89.2 0 0 378.19 197.31
  Q 375.56 203.03 378.18 208.82
  A 1.08 1.08 0.0 0 0 378.74 209.38
  Q 383.10 211.37 387.23 208.94
  A 0.46 0.46 0.0 0 0 387.39 208.29
  L 387.24 208.06
  Q 387.03 207.72 386.68 207.91
  C 383.22 209.77 377.61 209.61 378.53 203.95
  Q 378.61 203.51 379.05 203.51
  Z
  M 392.67 197.14
  L 391.80 196.00
  A 0.29 0.29 0.0 0 0 391.28 196.18
  L 391.62 209.91
  Q 391.63 210.14 391.83 210.21
  Q 392.07 210.30 392.33 210.25
  A 0.59 0.57 85.1 0 0 392.79 209.69
  L 392.83 199.63
  Q 392.83 198.99 393.42 198.74
  L 397.66 196.93
  Q 397.92 196.82 397.88 196.54
  L 397.85 196.28
  Q 397.70 195.23 396.74 195.69
  L 393.40 197.31
  Q 392.96 197.53 392.67 197.14
  Z
  M 401.64 203.56
  L 409.63 203.64
  Q 410.08 203.65 410.17 203.21
  C 411.93 194.63 400.43 192.41 399.52 201.23
  C 398.97 206.53 400.05 211.63 407.01 209.89
  Q 408.79 209.45 409.62 208.91
  Q 409.82 208.78 409.86 208.60
  Q 409.91 208.42 409.83 208.25
  Q 409.61 207.75 409.13 207.99
  C 405.55 209.75 399.77 209.78 401.15 203.95
  Q 401.24 203.56 401.64 203.56
  Z
  M 415.59 197.96
  L 419.78 196.99
  A 2.39 2.38 83.3 0 1 422.70 199.30
  L 422.75 209.81
  Q 422.75 210.15 423.08 210.21
  L 423.42 210.28
  Q 423.95 210.38 423.97 209.84
  C 424.11 206.38 425.49 195.81 420.53 195.71
  Q 419.47 195.68 415.91 196.87
  A 0.82 0.80 -34.6 0 1 415.15 196.74
  L 414.13 195.93
  Q 413.62 195.53 413.63 196.18
  L 413.80 209.69
  Q 413.80 210.14 414.25 210.22
  L 414.58 210.27
  Q 415.03 210.35 415.03 209.90
  L 415.04 198.65
  Q 415.04 198.09 415.59 197.96
  Z
  M 429.07 206.24
  C 428.19 200.88 428.81 194.32 436.53 198.09
  Q 436.95 198.30 437.26 197.94
  Q 437.68 197.45 437.19 197.12
  C 433.13 194.34 428.29 195.49 427.56 200.69
  C 426.85 205.73 427.86 211.84 434.74 209.99
  C 435.75 209.72 437.11 209.63 437.84 208.62
  A 0.50 0.50 0.0 0 0 437.19 207.89
  C 434.78 209.23 429.73 210.22 429.07 206.24
  Z
  M 442.68 203.52
  L 450.79 203.62
  Q 451.30 203.63 451.36 203.13
  C 451.86 199.13 449.63 194.92 445.25 195.65
  C 440.31 196.48 439.96 201.38 440.69 205.47
  C 441.68 210.99 446.09 211.35 450.39 209.14
  Q 451.07 208.79 450.94 208.23
  Q 450.81 207.67 450.30 207.93
  C 446.88 209.65 440.90 209.94 442.07 204.01
  Q 442.17 203.51 442.68 203.52
  Z"
/>
<path fill="#fd9f1a" d="
  M 583.24 57.35
  C 578.94 38.26 566.13 21.05 545.26 19.03
  C 519.52 16.55 503.10 34.40 497.87 57.91
  A 0.12 0.12 0.0 0 1 497.64 57.90
  Q 497.32 54.47 497.73 50.98
  C 500.78 24.90 517.54 7.35 544.48 9.28
  C 570.60 11.16 583.55 32.94 583.67 57.30
  A 0.22 0.22 0.0 0 1 583.24 57.35
  Z"
/>
<path fill="#fd9f1a" d="
  M 553.97 44.13
  C 546.65 39.89 537.41 39.40 529.89 42.80
  C 520.88 46.88 515.01 56.15 512.81 65.75
  A 0.20 0.20 0.0 0 1 512.42 65.70
  C 512.44 51.80 519.14 39.19 533.34 35.11
  Q 543.89 32.08 553.50 37.27
  C 564.76 43.36 568.31 54.10 569.14 65.94
  A 0.21 0.20 -54.6 0 1 568.74 66.01
  C 566.61 57.91 561.51 48.49 553.97 44.13
  Z"
/>
<path fill="#fd9f1a" d="
  M 542.01 57.87
  C 532.51 56.80 526.29 65.60 523.76 73.75
  A 0.18 0.18 0.0 0 1 523.40 73.70
  C 523.17 62.89 530.92 51.40 543.00 53.55
  C 553.76 55.47 557.46 64.24 558.11 74.08
  A 0.16 0.16 0.0 0 1 557.80 74.14
  C 555.26 66.74 550.64 58.84 542.01 57.87
  Z"
/>
<path fill="#242021" d="
  M 577.81 181.80
  Q 583.40 170.97 582.86 157.22
  C 582.78 155.21 584.44 153.94 586.41 153.56
  C 597.25 151.47 604.02 147.48 605.87 135.50
  C 608.27 119.94 593.86 115.59 583.40 124.38
  Q 581.42 126.05 579.49 129.80
  Q 572.72 142.92 563.25 150.99
  C 553.49 159.30 541.63 161.61 529.13 161.06
  Q 520.84 160.69 516.61 159.74
  C 503.85 156.89 498.10 146.24 495.24 134.35
  C 494.28 130.34 492.26 128.28 488.15 130.69
  Q 487.70 130.95 487.64 131.46
  C 486.59 140.10 497.65 152.36 502.18 158.81
  Q 504.25 161.75 508.87 161.11
  A 1.10 1.09 -26.5 0 1 509.78 161.41
  Q 510.85 162.44 510.88 164.39
  Q 511.12 179.28 511.30 193.64
  A 3.99 3.98 66.8 0 1 510.17 196.47
  L 486.75 220.55
  A 1.60 1.60 0.0 0 1 484.13 220.06
  Q 483.07 217.56 484.64 215.91
  Q 494.76 205.31 504.65 195.46
  A 5.56 5.56 0.0 0 0 506.29 191.54
  Q 506.32 180.78 506.09 169.00
  Q 506.05 167.19 505.35 166.10
  A 1.15 1.14 -14.1 0 0 504.46 165.57
  Q 501.09 165.40 498.72 162.28
  Q 492.94 154.72 487.73 146.77
  C 484.38 141.67 478.48 127.21 488.39 125.22
  A 1.66 1.65 77.1 0 0 489.67 123.17
  Q 485.87 108.59 489.77 94.34
  C 491.73 87.17 493.64 82.00 501.32 80.97
  Q 540.82 75.68 582.16 80.27
  C 584.73 80.55 588.43 82.35 589.25 84.53
  C 593.00 94.51 593.30 103.80 592.42 114.09
  Q 592.37 114.68 592.96 114.69
  Q 604.53 114.79 608.95 123.65
  C 612.80 131.37 610.90 140.83 606.22 147.96
  Q 601.23 155.59 591.75 157.51
  C 587.48 158.38 587.47 162.86 587.35 166.21
  C 587.10 172.48 584.82 178.82 582.10 184.41
  C 579.01 190.77 578.87 194.72 583.77 199.68
  Q 591.69 207.68 599.11 216.14
  Q 600.72 217.97 599.24 220.24
  Q 598.14 221.91 596.70 220.52
  Q 585.78 209.90 576.19 197.77
  C 575.41 196.79 574.58 194.74 574.53 193.28
  Q 573.70 170.32 576.53 147.50
  Q 576.74 145.79 578.06 146.11
  A 1.32 1.32 0.0 0 1 579.06 147.49
  C 578.29 158.66 576.70 170.53 577.18 181.66
  Q 577.23 182.92 577.81 181.80
  Z
  M 572.4096 84.4407
  A 30.42 1.28 -0.3 0 0 541.9833 83.3200
  A 30.42 1.28 -0.3 0 0 511.5704 84.7593
  A 30.42 1.28 -0.3 0 0 541.9967 85.8800
  A 30.42 1.28 -0.3 0 0 572.4096 84.4407
  Z
  M 577.08 128.31
  C 579.45 123.48 580.84 121.09 585.95 119.03
  A 1.04 1.03 85.7 0 0 586.58 118.29
  Q 589.95 103.40 585.73 88.79
  A 1.72 1.72 0.0 0 0 583.56 87.63
  Q 576.89 89.74 569.49 90.04
  Q 543.36 91.12 517.21 90.59
  C 510.39 90.45 503.98 89.73 497.44 88.74
  A 0.73 0.73 0.0 0 0 496.66 89.18
  Q 491.24 102.02 493.13 115.51
  Q 494.89 128.06 500.90 142.19
  C 506.91 156.32 515.44 157.38 529.42 158.27
  C 552.45 159.75 567.45 147.86 577.08 128.31
  Z"
/>
<ellipse fill="#ffffff" cx="0.00" cy="0.00" transform="translate(541.99,84.60) rotate(-0.3)" rx="30.42" ry="1.28"/>
<path fill="#ffffff" d="
  M 577.08 128.31
  C 567.45 147.86 552.45 159.75 529.42 158.27
  C 515.44 157.38 506.91 156.32 500.90 142.19
  Q 494.89 128.06 493.13 115.51
  Q 491.24 102.02 496.66 89.18
  A 0.73 0.73 0.0 0 1 497.44 88.74
  C 503.98 89.73 510.39 90.45 517.21 90.59
  Q 543.36 91.12 569.49 90.04
  Q 576.89 89.74 583.56 87.63
  A 1.72 1.72 0.0 0 1 585.73 88.79
  Q 589.95 103.40 586.58 118.29
  A 1.04 1.03 85.7 0 1 585.95 119.03
  C 580.84 121.09 579.45 123.48 577.08 128.31
  Z"
/>
<path fill="#242021" d="
  M 31.89 124.34
  A 0.74 0.74 0.0 0 1 32.63 123.60
  L 86.88 123.69
  A 15.25 15.23 0.1 0 1 102.10 138.95
  L 102.06 166.79
  A 15.25 15.23 0.1 0 1 86.78 181.99
  L 32.53 181.90
  A 0.74 0.74 0.0 0 1 31.79 181.16
  L 31.89 124.34
  Z
  M 86.13 173.23
  C 89.52 173.23 92.47 171.78 92.51 168.00
  Q 92.65 153.88 92.71 139.74
  C 92.75 131.58 87.49 132.31 80.79 132.29
  Q 61.39 132.22 41.92 132.29
  Q 41.43 132.29 41.43 132.78
  L 41.43 172.81
  Q 41.43 173.40 42.02 173.40
  Q 64.25 173.26 86.13 173.23
  Z"
/>
<path fill="#242021" d="
  M 124.10 132.65
  L 124.20 148.15
  A 0.40 0.40 0.0 0 0 124.60 148.55
  L 176.61 148.55
  A 0.40 0.40 0.0 0 1 177.01 148.95
  L 176.97 156.81
  A 0.40 0.40 0.0 0 1 176.57 157.21
  L 124.50 157.23
  A 0.40 0.40 0.0 0 0 124.10 157.63
  L 124.18 172.87
  A 0.40 0.40 0.0 0 0 124.58 173.27
  L 178.85 173.27
  A 0.40 0.40 0.0 0 1 179.25 173.67
  L 179.26 181.50
  A 0.40 0.40 0.0 0 1 178.86 181.90
  L 115.32 181.91
  A 0.40 0.40 0.0 0 1 114.92 181.51
  L 114.89 124.11
  A 0.40 0.40 0.0 0 1 115.29 123.71
  L 176.59 123.72
  A 0.40 0.40 0.0 0 1 176.99 124.12
  L 176.99 131.85
  A 0.40 0.40 0.0 0 1 176.59 132.25
  L 124.50 132.25
  A 0.40 0.40 0.0 0 0 124.10 132.65
  Z"
/>
<path fill="#242021" d="
  M 255.96 123.73
  L 265.91 123.67
  A 0.39 0.39 0.0 0 1 266.24 124.28
  L 228.88 181.73
  A 0.39 0.39 0.0 0 1 228.55 181.91
  L 222.21 181.92
  A 0.39 0.39 0.0 0 1 221.88 181.74
  L 184.50 124.25
  A 0.39 0.39 0.0 0 1 184.83 123.65
  L 194.82 123.73
  A 0.39 0.39 0.0 0 1 195.14 123.91
  L 225.04 169.90
  A 0.39 0.39 0.0 0 0 225.70 169.90
  L 255.64 123.91
  A 0.39 0.39 0.0 0 1 255.96 123.73
  Z"
/>
<path fill="#242021" d="
  M 396.60 136.16
  L 402.43 130.42
  L 408.89 124.09
  Q 409.26 123.73 409.78 123.72
  L 420.49 123.69
  A 0.49 0.49 0.0 0 1 420.84 124.52
  L 408.69 136.69
  L 403.07 142.28
  L 392.74 152.38
  Q 392.31 152.80 392.73 153.23
  L 402.67 163.17
  L 396.56 169.25
  L 386.57 159.20
  Q 386.16 158.79 385.74 159.20
  L 363.59 181.18
  A 2.49 2.46 22.4 0 1 361.85 181.89
  L 351.73 181.90
  A 0.43 0.43 0.0 0 1 351.43 181.17
  L 379.62 153.15
  A 0.52 0.51 45.4 0 0 379.62 152.42
  L 351.29 124.21
  A 0.32 0.32 0.0 0 1 351.52 123.66
  L 362.30 123.74
  Q 362.83 123.75 363.21 124.12
  L 385.73 146.31
  Q 386.16 146.73 386.59 146.30
  L 396.60 136.16
  Z"
/>
<path fill="#fd9f1a" d="
  M 402.43 130.42
  L 396.60 136.16
  L 384.42 124.33
  A 0.45 0.44 -21.7 0 1 384.75 123.57
  C 387.95 123.69 395.28 122.70 397.55 124.93
  Q 400.12 127.45 402.43 130.42
  Z"
/>
<path fill="#fd9f1a" d="
  M 408.91 169.36
  L 402.93 175.22
  L 396.44 181.58
  A 1.41 1.37 22.3 0 1 395.47 181.97
  L 384.49 181.93
  A 0.30 0.30 0.0 0 1 384.28 181.42
  L 396.56 169.25
  L 402.67 163.17
  L 412.62 153.21
  A 0.75 0.75 0.0 0 0 412.63 152.16
  L 403.07 142.28
  L 408.69 136.69
  L 418.61 146.14
  A 0.88 0.87 44.5 0 0 419.83 146.14
  Q 430.39 135.74 441.00 125.23
  C 443.66 122.59 450.15 123.73 453.76 123.57
  A 0.46 0.45 -68.8 0 1 454.10 124.35
  L 426.06 152.26
  A 0.81 0.81 0.0 0 0 426.06 153.42
  L 454.10 181.18
  A 0.48 0.48 0.0 0 1 453.75 182.00
  L 442.99 181.96
  A 0.99 0.99 0.0 0 1 442.29 181.67
  L 419.65 159.32
  Q 419.22 158.89 418.79 159.32
  L 408.91 169.36
  Z"
/>
<path fill="#242021" d="
  M 460.37 125.04
  Q 459.28 125.35 458.81 124.33
  A 0.49 0.49 0.0 0 1 459.26 123.63
  L 464.76 123.64
  A 0.45 0.45 0.0 0 1 465.18 124.25
  Q 464.74 125.45 463.58 125.04
  Q 463.06 124.85 463.02 125.41
  Q 462.80 128.76 462.91 130.48
  Q 463.00 131.78 462.16 132.19
  A 0.55 0.55 0.0 0 1 461.38 131.71
  L 461.22 125.66
  A 0.66 0.66 0.0 0 0 460.37 125.04
  Z"
/>
<path fill="#242021" d="
  M 468.07 127.29
  L 467.89 131.52
  A 0.68 0.67 46.5 0 1 466.54 131.48
  L 466.57 124.50
  A 1.22 1.22 0.0 0 1 468.96 124.14
  L 470.24 128.24
  Q 470.58 129.34 470.87 128.23
  L 471.85 124.40
  A 1.36 1.36 0.0 0 1 474.52 124.75
  L 474.50 131.68
  A 0.65 0.65 0.0 0 1 473.21 131.73
  L 472.85 127.23
  Q 472.81 126.70 472.52 127.14
  C 471.67 128.39 472.04 129.85 471.50 131.17
  A 1.05 1.04 -40.0 0 1 469.51 131.00
  L 468.69 127.24
  A 0.31 0.31 0.0 0 0 468.07 127.29
  Z"
/>
<path fill="#242021" d="
  M 342.64 167.66
  A 14.23 14.23 0.0 0 1 328.41 181.89
  L 286.77 181.89
  A 14.23 14.23 0.0 0 1 272.54 167.66
  L 272.54 137.96
  A 14.23 14.23 0.0 0 1 286.77 123.73
  L 328.41 123.73
  A 14.23 14.23 0.0 0 1 342.64 137.96
  L 342.64 167.66
  Z
  M 333.29 138.07
  A 5.77 5.77 0.0 0 0 327.52 132.30
  L 287.60 132.30
  A 5.77 5.77 0.0 0 0 281.83 138.07
  L 281.83 167.49
  A 5.77 5.77 0.0 0 0 287.60 173.26
  L 327.52 173.26
  A 5.77 5.77 0.0 0 0 333.29 167.49
  L 333.29 138.07
  Z"
/>
<path fill="#242021" d="
  M 591.4856 143.5203
  A 8.84 7.31 97.7 0 1 585.4259 133.7806
  A 8.84 7.31 97.7 0 1 593.8544 125.9997
  A 8.84 7.31 97.7 0 1 599.9141 135.7394
  A 8.84 7.31 97.7 0 1 591.4856 143.5203
  Z
  M 591.8477 140.7118
  A 5.98 4.53 98.0 0 0 597.1659 135.4205
  A 5.98 4.53 98.0 0 0 593.5123 128.8682
  A 5.98 4.53 98.0 0 0 588.1941 134.1595
  A 5.98 4.53 98.0 0 0 591.8477 140.7118
  Z"
/>
<ellipse fill="#ffffff" cx="0.00" cy="0.00" transform="translate(592.68,134.79) rotate(98.0)" rx="5.98" ry="4.53"/>
<path fill="#ffffff" d="
  M 92.51 168.00
  C 92.47 171.78 89.52 173.23 86.13 173.23
  Q 64.25 173.26 42.02 173.40
  Q 41.43 173.40 41.43 172.81
  L 41.43 132.78
  Q 41.43 132.29 41.92 132.29
  Q 61.39 132.22 80.79 132.29
  C 87.49 132.31 92.75 131.58 92.71 139.74
  Q 92.65 153.88 92.51 168.00
  Z"
/>
<rect fill="#ffffff" x="281.83" y="132.30" width="51.46" height="40.96" rx="5.77"/>
<path fill="#ffffff" d="
  M 403.07 142.28
  L 412.63 152.16
  A 0.75 0.75 0.0 0 1 412.62 153.21
  L 402.67 163.17
  L 392.73 153.23
  Q 392.31 152.80 392.74 152.38
  L 403.07 142.28
  Z"
/>
<path fill="#242021" d="
  M 408.91 169.36
  L 420.87 181.23
  A 0.45 0.45 0.0 0 1 420.55 182.00
  L 409.71 181.85
  A 0.79 0.78 68.3 0 1 409.18 181.62
  L 402.93 175.22
  L 408.91 169.36
  Z"
/>
<path fill="#242021" d="
  M 44.99 196.97
  C 47.78 196.16 52.46 194.18 53.15 198.74
  Q 53.51 201.19 53.24 209.76
  Q 53.22 210.26 52.72 210.26
  Q 52.58 210.26 52.43 210.26
  Q 52.04 210.26 52.04 209.87
  Q 51.99 204.82 51.97 199.77
  C 51.97 195.44 47.06 197.45 44.90 198.03
  A 0.79 0.77 82.9 0 0 44.32 198.79
  L 44.25 209.72
  Q 44.25 210.19 43.78 210.25
  Q 43.59 210.28 43.40 210.24
  Q 43.01 210.15 43.01 209.76
  Q 42.97 200.63 42.95 191.50
  Q 42.95 190.74 43.23 190.22
  A 0.54 0.54 0.0 0 1 44.24 190.47
  L 44.32 196.48
  Q 44.33 197.16 44.99 196.97
  Z"
/>
<path fill="#242021" d="
  M 86.57 196.70
  L 86.69 190.39
  Q 86.70 189.97 87.11 189.88
  L 87.42 189.82
  A 0.43 0.42 83.3 0 1 87.93 190.23
  L 88.10 209.77
  Q 88.11 210.34 87.63 210.03
  Q 86.33 209.16 84.84 209.60
  C 81.39 210.62 78.61 210.61 77.86 206.24
  C 76.89 200.51 77.57 192.40 85.86 197.10
  Q 86.55 197.49 86.57 196.70
  Z
  M 86.6128 199.9538
  A 2.88 2.88 0.0 0 0 83.6979 197.1092
  L 81.8580 197.1317
  A 2.88 2.88 0.0 0 0 79.0134 200.0466
  L 79.0872 206.0862
  A 2.88 2.88 0.0 0 0 82.0021 208.9308
  L 83.8420 208.9083
  A 2.88 2.88 0.0 0 0 86.6866 205.9934
  L 86.6128 199.9538
  Z"
/>
<ellipse fill="#242021" cx="0.00" cy="0.00" transform="translate(293.92,190.81) rotate(91.2)" rx="1.02" ry="0.67"/>
<path fill="#242021" d="
  M 370.91 198.04
  Q 370.50 203.77 370.60 209.51
  Q 370.62 210.72 369.63 210.23
  A 0.61 0.59 14.1 0 1 369.30 209.70
  L 369.30 198.51
  A 0.97 0.96 -79.3 0 0 368.69 197.61
  L 368.25 197.43
  A 0.52 0.52 0.0 0 1 368.09 196.56
  L 368.85 195.88
  A 0.85 0.85 0.0 0 0 369.12 195.36
  L 369.67 191.51
  Q 369.73 191.07 370.09 190.81
  Q 372.85 188.79 375.63 190.66
  Q 376.15 191.02 375.73 191.54
  A 0.69 0.69 0.0 0 1 374.82 191.68
  Q 373.34 190.70 371.60 191.38
  A 1.01 0.99 82.5 0 0 370.97 192.22
  L 370.67 195.42
  A 0.75 0.75 0.0 0 0 371.43 196.24
  L 375.33 196.13
  Q 375.87 196.11 375.92 196.65
  L 375.94 196.95
  Q 375.98 197.37 375.55 197.38
  L 371.51 197.47
  Q 370.95 197.48 370.91 198.04
  Z"
/>
<rect fill="#242021" x="-0.70" y="-10.17" transform="translate(131.53,200.14) rotate(0.2)" width="1.40" height="20.34" rx="0.67"/>
<path fill="#242021" d="
  M 301.77 196.36
  L 303.91 195.99
  A 0.49 0.49 0.0 0 1 304.47 196.40
  L 304.51 196.69
  Q 304.59 197.22 304.05 197.25
  L 301.52 197.39
  Q 300.99 197.41 300.99 197.94
  Q 301.00 202.08 301.01 206.16
  C 301.01 208.87 302.51 210.05 305.02 208.66
  Q 305.52 208.38 305.97 208.55
  A 0.52 0.52 0.0 0 1 306.04 209.48
  Q 303.21 211.12 300.36 209.56
  A 1.28 1.28 0.0 0 1 299.68 208.43
  L 299.62 198.38
  Q 299.62 197.81 299.10 197.58
  L 298.11 197.14
  A 0.41 0.40 -40.0 0 1 298.18 196.38
  L 299.01 196.16
  Q 299.35 196.07 299.41 195.73
  L 300.12 191.72
  A 0.42 0.42 0.0 0 1 300.96 191.78
  L 301.05 195.76
  Q 301.07 196.47 301.77 196.36
  Z"
/>
<path fill="#242021" d="
  M 35.75 196.33
  L 38.18 196.03
  A 0.47 0.47 0.0 0 1 38.71 196.44
  Q 38.72 196.59 38.74 196.74
  Q 38.79 197.18 38.35 197.21
  L 35.54 197.40
  Q 35.03 197.44 35.04 197.95
  L 35.19 207.78
  A 1.00 1.00 0.0 0 0 35.75 208.66
  Q 37.63 209.54 39.54 208.54
  A 0.48 0.48 0.0 0 1 40.22 208.80
  Q 40.41 209.31 39.96 209.55
  Q 36.56 211.41 34.32 209.14
  A 1.50 1.47 -67.6 0 1 33.90 208.10
  L 33.84 198.32
  Q 33.83 197.74 33.31 197.48
  L 32.65 197.14
  Q 31.98 196.81 32.63 196.42
  L 33.15 196.10
  Q 33.58 195.85 33.66 195.36
  L 34.26 191.91
  A 0.40 0.40 0.0 0 1 35.05 191.98
  L 35.08 195.75
  Q 35.08 196.42 35.75 196.33
  Z"
/>
<path fill="#242021" d="
  M 109.93 206.27
  Q 111.76 201.31 113.42 196.29
  Q 113.51 196.02 113.71 195.86
  Q 113.99 195.64 114.17 195.63
  A 0.59 0.57 -81.2 0 1 114.72 196.42
  L 109.94 209.95
  A 0.39 0.39 0.0 0 1 109.21 209.95
  Q 106.98 203.54 104.58 197.29
  Q 104.41 196.85 104.42 196.52
  A 0.66 0.66 0.0 0 1 105.71 196.32
  L 109.19 206.26
  Q 109.55 207.29 109.93 206.27
  Z"
/>
<path fill="#242021" d="
  M 362.37 197.53
  C 360.57 196.81 358.17 197.52 356.47 198.13
  Q 355.88 198.34 355.88 198.96
  L 355.97 209.45
  A 0.85 0.84 73.5 0 1 355.59 210.16
  Q 354.42 210.93 354.41 209.50
  Q 354.36 202.98 354.21 196.45
  Q 354.20 196.15 354.49 196.25
  Q 356.77 197.04 360.24 195.79
  C 366.45 193.53 365.04 206.97 364.78 209.74
  Q 364.75 210.05 364.60 210.23
  Q 364.02 210.92 363.34 209.69
  A 0.61 0.55 -60.7 0 1 363.28 209.43
  Q 363.55 203.93 363.06 198.45
  A 1.09 1.08 -82.3 0 0 362.37 197.53
  Z"
/>
<path fill="#242021" d="
  M 58.26 203.98
  Q 57.91 206.39 59.39 208.30
  Q 59.67 208.67 60.13 208.78
  Q 63.48 209.56 66.50 207.92
  A 0.43 0.43 0.0 0 1 67.13 208.30
  Q 67.11 209.17 66.38 209.21
  Q 66.08 209.23 65.81 209.37
  C 55.62 214.69 54.09 198.85 59.80 196.22
  C 64.84 193.89 68.25 198.37 67.57 203.11
  Q 67.49 203.66 66.94 203.66
  L 58.75 203.56
  Q 58.32 203.55 58.26 203.98
  Z
  M 58.92 202.52
  L 65.42 202.48
  A 0.84 0.84 0.0 0 0 66.25 201.63
  L 66.25 200.97
  A 4.06 3.69 89.6 0 0 62.53 196.94
  L 61.73 196.94
  A 4.06 3.69 89.6 0 0 58.07 201.03
  L 58.07 201.69
  A 0.84 0.84 0.0 0 0 58.92 202.52
  Z"
/>
<path fill="#242021" d="
  M 93.27 203.95
  Q 92.96 206.21 94.17 208.11
  A 1.18 1.12 82.3 0 0 94.77 208.59
  Q 98.30 209.76 101.51 207.83
  A 0.42 0.42 0.0 0 1 102.14 208.21
  L 102.12 208.57
  A 0.38 0.37 -15.8 0 1 101.94 208.89
  Q 97.52 211.61 93.16 209.01
  A 1.71 1.69 -82.4 0 1 92.40 208.00
  C 91.39 204.27 90.62 197.23 95.49 195.92
  C 100.27 194.63 103.36 198.46 102.54 203.17
  Q 102.45 203.66 101.96 203.65
  L 93.78 203.52
  Q 93.33 203.51 93.27 203.95
  Z
  M 93.82 202.46
  L 100.46 202.52
  A 0.79 0.79 0.0 0 0 101.25 201.74
  L 101.25 201.47
  A 4.56 3.87 -89.5 0 0 97.42 196.87
  L 96.94 196.87
  A 4.56 3.87 -89.5 0 0 93.03 201.39
  L 93.03 201.66
  A 0.79 0.79 0.0 0 0 93.82 202.46
  Z"
/>
<path fill="#242021" d="
  M 118.11 203.91
  C 117.23 209.78 122.63 209.74 126.28 207.99
  Q 126.71 207.78 126.96 208.21
  Q 127.30 208.81 126.62 209.13
  C 123.35 210.62 118.61 211.34 117.10 207.14
  C 115.79 203.51 116.02 196.01 121.62 195.73
  C 126.00 195.51 128.17 199.01 127.36 203.08
  Q 127.26 203.60 126.73 203.60
  L 118.54 203.55
  Q 118.17 203.54 118.11 203.91
  Z
  M 118.83 202.51
  L 125.29 202.49
  A 0.85 0.85 0.0 0 0 126.14 201.64
  L 126.14 200.99
  A 4.08 3.69 89.9 0 0 122.45 196.92
  L 121.67 196.92
  A 4.08 3.69 89.9 0 0 117.98 201.01
  L 117.98 201.66
  A 0.85 0.85 0.0 0 0 118.83 202.51
  Z"
/>
<path fill="#242021" d="
  M 146.58 205.37
  A 4.87 4.87 0.0 0 1 141.71 210.24
  L 140.65 210.24
  A 4.87 4.87 0.0 0 1 135.78 205.37
  L 135.78 200.69
  A 4.87 4.87 0.0 0 1 140.65 195.82
  L 141.71 195.82
  A 4.87 4.87 0.0 0 1 146.58 200.69
  L 146.58 205.37
  Z
  M 145.19 200.75
  A 3.76 3.76 0.0 0 0 141.43 196.99
  L 140.87 196.99
  A 3.76 3.76 0.0 0 0 137.11 200.75
  L 137.11 205.37
  A 3.76 3.76 0.0 0 0 140.87 209.13
  L 141.43 209.13
  A 3.76 3.76 0.0 0 0 145.19 205.37
  L 145.19 200.75
  Z"
/>
<path fill="#242021" d="
  M 152.32 196.79
  C 155.94 195.81 160.51 194.36 160.55 200.26
  Q 160.56 203.20 160.47 205.15
  C 160.22 210.29 156.43 211.64 152.16 209.20
  A 0.42 0.42 0.0 0 0 151.52 209.56
  L 151.49 215.86
  Q 151.49 216.29 151.07 216.21
  L 150.58 216.12
  A 0.47 0.46 -84.8 0 1 150.20 215.66
  L 150.10 196.19
  Q 150.10 195.60 150.57 195.96
  L 151.42 196.61
  Q 151.82 196.92 152.32 196.79
  Z
  M 159.2016 199.7634
  A 2.59 2.59 0.0 0 0 156.6207 197.1644
  L 154.1207 197.1557
  A 2.59 2.59 0.0 0 0 151.5216 199.7366
  L 151.4984 206.3966
  A 2.59 2.59 0.0 0 0 154.0793 208.9956
  L 156.5793 209.0043
  A 2.59 2.59 0.0 0 0 159.1784 206.4234
  L 159.2016 199.7634
  Z"
/>
<path fill="#242021" d="
  M 165.14 204.04
  C 164.06 209.70 169.81 209.76 173.19 207.94
  Q 173.65 207.69 173.90 208.15
  Q 174.23 208.76 173.76 209.01
  C 161.20 215.74 161.05 196.66 167.77 195.72
  C 172.47 195.06 175.26 198.47 174.34 203.14
  Q 174.23 203.67 173.69 203.66
  L 165.72 203.57
  Q 165.23 203.56 165.14 204.04
  Z
  M 165.77 202.47
  L 172.31 202.49
  A 0.74 0.74 0.0 0 0 173.05 201.75
  L 173.05 201.17
  A 4.24 3.74 -89.9 0 0 169.31 196.92
  L 168.77 196.92
  A 4.24 3.74 -89.9 0 0 165.03 201.15
  L 165.03 201.73
  A 0.74 0.74 0.0 0 0 165.77 202.47
  Z"
/>
<path fill="#242021" d="
  M 179.81 197.42
  L 183.57 195.66
  A 0.55 0.54 -25.4 0 1 184.29 195.91
  L 184.45 196.26
  Q 184.69 196.77 184.16 196.98
  L 180.65 198.37
  A 2.05 2.05 0.0 0 0 179.36 200.26
  L 179.28 209.73
  Q 179.28 210.20 178.81 210.28
  Q 178.38 210.35 178.13 210.04
  Q 177.96 209.83 177.97 209.43
  Q 178.23 202.76 177.70 196.12
  A 0.39 0.39 0.0 0 1 178.43 195.90
  L 179.17 197.22
  Q 179.40 197.62 179.81 197.42
  Z"
/>
<path fill="#242021" d="
  M 195.69 198.28
  C 193.53 203.56 194.43 212.50 203.19 207.90
  A 0.53 0.52 -81.0 0 1 203.80 208.74
  Q 202.89 209.63 201.55 209.93
  C 192.50 211.94 192.09 203.57 194.39 197.66
  A 1.67 1.66 -3.8 0 1 195.14 196.81
  Q 199.01 194.68 202.93 196.87
  Q 203.47 197.18 203.29 197.76
  Q 203.25 197.88 203.22 198.00
  A 0.33 0.32 -65.1 0 1 202.75 198.18
  Q 199.74 196.40 196.44 197.56
  A 1.26 1.25 1.0 0 0 195.69 198.28
  Z"
/>
<path fill="#242021" d="
  M 217.3677 205.3784
  A 4.89 4.89 0.0 0 1 212.4521 210.2427
  L 211.3722 210.2371
  A 4.89 4.89 0.0 0 1 206.5078 205.3215
  L 206.5323 200.6416
  A 4.89 4.89 0.0 0 1 211.4479 195.7773
  L 212.5278 195.7829
  A 4.89 4.89 0.0 0 1 217.3922 200.6985
  L 217.3677 205.3784
  Z
  M 215.9622 200.7310
  A 3.68 3.68 0.0 0 0 212.3015 197.0318
  L 211.6415 197.0284
  A 3.68 3.68 0.0 0 0 207.9423 200.6890
  L 207.9178 205.3690
  A 3.68 3.68 0.0 0 0 211.5785 209.0682
  L 212.2385 209.0716
  A 3.68 3.68 0.0 0 0 215.9377 205.4110
  L 215.9622 200.7310
  Z"
/>
<path fill="#242021" d="
  M 230.63 198.98
  Q 230.79 204.13 230.69 209.25
  Q 230.68 210.02 230.08 210.34
  A 0.49 0.49 0.0 0 1 229.36 209.93
  Q 229.12 205.08 229.30 200.26
  C 229.46 195.96 225.18 197.10 222.79 198.20
  Q 222.29 198.43 222.29 198.99
  L 222.25 209.77
  Q 222.25 210.30 221.72 210.31
  Q 221.59 210.31 221.46 210.31
  A 0.59 0.58 -0.5 0 1 220.86 209.73
  L 220.74 196.21
  A 0.34 0.34 0.0 0 1 221.31 195.96
  L 222.34 196.91
  Q 222.75 197.28 223.22 196.98
  Q 226.57 194.79 229.77 196.85
  A 1.10 1.10 0.0 0 0 230.71 196.98
  C 233.64 196.07 238.59 194.08 238.90 199.42
  Q 239.21 204.56 238.91 209.73
  A 0.58 0.58 0.0 0 1 238.30 210.28
  Q 237.83 210.25 237.82 209.75
  Q 237.73 205.00 237.67 200.25
  C 237.62 195.91 233.45 197.07 231.09 198.22
  Q 230.61 198.45 230.63 198.98
  Z"
/>
<path fill="#242021" d="
  M 244.97 196.83
  C 247.37 196.17 249.41 195.03 251.63 196.86
  Q 252.01 197.18 252.49 197.03
  C 255.47 196.06 260.70 194.01 260.93 199.51
  Q 261.15 204.59 260.98 209.69
  Q 260.96 210.29 260.36 210.25
  Q 260.22 210.23 260.08 210.18
  Q 259.75 210.05 259.75 209.69
  L 259.61 198.92
  A 1.95 1.95 0.0 0 0 257.14 197.07
  L 253.29 198.14
  Q 252.63 198.32 252.63 199.01
  L 252.61 209.94
  A 0.43 0.42 3.6 0 1 252.13 210.36
  Q 251.94 210.34 251.75 210.32
  A 0.31 0.31 0.0 0 1 251.46 210.02
  Q 251.11 202.47 251.25 200.50
  C 251.58 195.82 247.22 197.12 244.81 198.27
  A 0.82 0.81 -12.5 0 0 244.33 199.01
  L 244.26 209.94
  Q 244.26 210.41 243.79 210.31
  L 243.44 210.24
  Q 242.98 210.14 242.97 209.67
  L 242.83 196.18
  Q 242.83 195.40 243.40 195.93
  L 244.14 196.62
  Q 244.49 196.96 244.97 196.83
  Z"
/>
<path fill="#242021" d="
  M 272.89 209.43
  C 269.12 210.48 264.96 211.41 264.83 205.74
  Q 264.71 200.11 264.92 196.63
  Q 264.95 196.12 265.16 195.93
  Q 265.32 195.77 265.56 195.76
  Q 266.04 195.73 266.07 196.22
  Q 266.34 201.43 266.30 206.66
  C 266.26 210.51 271.07 208.80 272.96 208.23
  Q 273.49 208.06 273.49 207.51
  L 273.56 196.04
  A 0.48 0.47 -79.2 0 1 274.20 195.60
  Q 274.34 195.66 274.48 195.69
  Q 274.87 195.79 274.87 196.19
  L 275.01 209.69
  Q 275.02 210.71 274.27 210.03
  L 273.86 209.66
  Q 273.44 209.28 272.89 209.43
  Z"
/>
<path fill="#242021" d="
  M 280.28 198.82
  L 280.25 209.75
  A 0.51 0.51 0.0 0 1 279.74 210.26
  Q 279.59 210.27 279.44 210.27
  Q 279.05 210.29 279.04 209.90
  L 278.89 196.26
  Q 278.88 195.80 279.25 196.07
  Q 280.80 197.24 282.64 196.59
  C 287.34 194.91 289.18 196.08 289.25 201.07
  Q 289.30 205.41 289.22 209.71
  Q 289.22 210.20 288.73 210.25
  Q 288.56 210.27 288.40 210.24
  Q 287.99 210.17 287.99 209.76
  C 288.00 206.49 288.91 199.37 286.48 197.03
  A 0.74 0.71 59.8 0 0 285.81 196.84
  L 280.97 197.96
  Q 280.28 198.12 280.28 198.82
  Z"
/>
<rect fill="#242021" x="-0.63" y="-7.26" transform="translate(293.90,202.99) rotate(0.2)" width="1.26" height="14.52" rx="0.57"/>
<path fill="#242021" d="
  M 313.06 206.50
  L 316.71 196.04
  A 0.54 0.53 -63.5 0 1 317.51 195.77
  Q 317.99 196.09 317.69 196.98
  C 315.10 204.63 313.45 212.48 307.78 216.05
  A 0.38 0.38 0.0 0 1 307.20 215.71
  Q 307.23 215.13 307.60 214.86
  Q 310.50 212.73 311.87 209.14
  Q 312.06 208.65 311.87 208.16
  L 307.57 196.57
  A 0.59 0.59 0.0 0 1 308.42 195.86
  Q 308.92 196.16 309.20 197.10
  Q 310.62 201.91 312.56 206.52
  Q 312.83 207.15 313.06 206.50
  Z"
/>
<path fill="#242021" d="
  M 329.22 198.25
  C 327.11 203.19 327.77 212.46 336.49 207.90
  Q 336.79 207.74 337.00 207.81
  Q 337.31 207.90 337.41 208.25
  A 0.70 0.68 68.2 0 1 337.08 209.05
  Q 333.08 211.26 328.84 209.52
  A 1.45 1.40 88.0 0 1 328.07 208.78
  Q 325.88 203.98 327.34 199.29
  C 328.64 195.10 333.16 194.96 336.39 196.80
  Q 336.85 197.06 336.79 197.58
  L 336.75 197.96
  Q 336.69 198.44 336.27 198.20
  Q 333.30 196.56 330.05 197.52
  A 1.30 1.28 3.4 0 0 329.22 198.25
  Z"
/>
<path fill="#242021" d="
  M 350.9517 205.4592
  A 4.90 4.90 0.0 0 1 346.0346 210.3421
  L 344.8146 210.3378
  A 4.90 4.90 0.0 0 1 339.9318 205.4208
  L 339.9483 200.6808
  A 4.90 4.90 0.0 0 1 344.8654 195.7979
  L 346.0854 195.8022
  A 4.90 4.90 0.0 0 1 350.9682 200.7192
  L 350.9517 205.4592
  Z
  M 349.3924 200.6706
  A 3.57 3.57 0.0 0 0 345.8411 197.0820
  L 345.1211 197.0782
  A 3.57 3.57 0.0 0 0 341.5325 200.6295
  L 341.5076 205.3694
  A 3.57 3.57 0.0 0 0 345.0589 208.9580
  L 345.7789 208.9618
  A 3.57 3.57 0.0 0 0 349.3675 205.4105
  L 349.3924 200.6706
  Z"
/>
<path fill="#242021" d="
  M 378.53 203.95
  C 377.61 209.61 383.22 209.77 386.68 207.91
  Q 387.03 207.72 387.24 208.06
  L 387.39 208.29
  A 0.46 0.46 0.0 0 1 387.23 208.94
  Q 383.10 211.37 378.74 209.38
  A 1.08 1.08 0.0 0 1 378.18 208.82
  Q 375.56 203.03 378.19 197.31
  A 1.48 1.40 -89.2 0 1 378.86 196.62
  C 384.47 193.89 388.34 197.03 387.95 202.97
  A 0.71 0.71 0.0 0 1 387.23 203.64
  L 379.05 203.51
  Q 378.61 203.51 378.53 203.95
  Z
  M 379.05 202.38
  L 385.85 202.46
  A 0.62 0.62 0.0 0 0 386.47 201.85
  L 386.48 201.08
  A 3.99 3.33 -89.3 0 0 383.20 197.05
  L 381.82 197.03
  A 3.99 3.33 -89.3 0 0 378.44 200.98
  L 378.44 201.75
  A 0.62 0.62 0.0 0 0 379.05 202.38
  Z"
/>
<path fill="#242021" d="
  M 393.40 197.31
  L 396.74 195.69
  Q 397.70 195.23 397.85 196.28
  L 397.88 196.54
  Q 397.92 196.82 397.66 196.93
  L 393.42 198.74
  Q 392.83 198.99 392.83 199.63
  L 392.79 209.69
  A 0.59 0.57 85.1 0 1 392.33 210.25
  Q 392.07 210.30 391.83 210.21
  Q 391.63 210.14 391.62 209.91
  L 391.28 196.18
  A 0.29 0.29 0.0 0 1 391.80 196.00
  L 392.67 197.14
  Q 392.96 197.53 393.40 197.31
  Z"
/>
<path fill="#242021" d="
  M 401.15 203.95
  C 399.77 209.78 405.55 209.75 409.13 207.99
  Q 409.61 207.75 409.83 208.25
  Q 409.91 208.42 409.86 208.60
  Q 409.82 208.78 409.62 208.91
  Q 408.79 209.45 407.01 209.89
  C 400.05 211.63 398.97 206.53 399.52 201.23
  C 400.43 192.41 411.93 194.63 410.17 203.21
  Q 410.08 203.65 409.63 203.64
  L 401.64 203.56
  Q 401.24 203.56 401.15 203.95
  Z
  M 401.59 202.50
  L 408.25 202.50
  A 0.75 0.75 0.0 0 0 409.00 201.75
  L 409.00 201.45
  A 4.59 3.83 90.0 0 0 405.17 196.86
  L 404.67 196.86
  A 4.59 3.83 -90.0 0 0 400.84 201.45
  L 400.84 201.75
  A 0.75 0.75 0.0 0 0 401.59 202.50
  Z"
/>
<path fill="#242021" d="
  M 415.04 198.65
  L 415.03 209.90
  Q 415.03 210.35 414.58 210.27
  L 414.25 210.22
  Q 413.80 210.14 413.80 209.69
  L 413.63 196.18
  Q 413.62 195.53 414.13 195.93
  L 415.15 196.74
  A 0.82 0.80 -34.6 0 0 415.91 196.87
  Q 419.47 195.68 420.53 195.71
  C 425.49 195.81 424.11 206.38 423.97 209.84
  Q 423.95 210.38 423.42 210.28
  L 423.08 210.21
  Q 422.75 210.15 422.75 209.81
  L 422.70 199.30
  A 2.39 2.38 83.3 0 0 419.78 196.99
  L 415.59 197.96
  Q 415.04 198.09 415.04 198.65
  Z"
/>
<path fill="#242021" d="
  M 436.53 198.09
  C 428.81 194.32 428.19 200.88 429.07 206.24
  C 429.73 210.22 434.78 209.23 437.19 207.89
  A 0.50 0.50 0.0 0 1 437.84 208.62
  C 437.11 209.63 435.75 209.72 434.74 209.99
  C 427.86 211.84 426.85 205.73 427.56 200.69
  C 428.29 195.49 433.13 194.34 437.19 197.12
  Q 437.68 197.45 437.26 197.94
  Q 436.95 198.30 436.53 198.09
  Z"
/>
<path fill="#242021" d="
  M 442.07 204.01
  C 440.90 209.94 446.88 209.65 450.30 207.93
  Q 450.81 207.67 450.94 208.23
  Q 451.07 208.79 450.39 209.14
  C 446.09 211.35 441.68 210.99 440.69 205.47
  C 439.96 201.38 440.31 196.48 445.25 195.65
  C 449.63 194.92 451.86 199.13 451.36 203.13
  Q 451.30 203.63 450.79 203.62
  L 442.68 203.52
  Q 442.17 203.51 442.07 204.01
  Z
  M 442.60 202.48
  L 449.26 202.52
  A 0.75 0.75 0.0 0 0 450.02 201.78
  L 450.02 201.14
  A 4.27 3.84 -89.6 0 0 446.21 196.84
  L 445.73 196.84
  A 4.27 3.84 -89.6 0 0 441.86 201.08
  L 441.86 201.72
  A 0.75 0.75 0.0 0 0 442.60 202.48
  Z"
/>
<path fill="#ffffff" d="
  M 93.82 202.46
  A 0.79 0.79 0.0 0 1 93.03 201.66
  L 93.03 201.39
  A 4.56 3.87 -89.5 0 1 96.94 196.87
  L 97.42 196.87
  A 4.56 3.87 -89.5 0 1 101.25 201.47
  L 101.25 201.74
  A 0.79 0.79 0.0 0 1 100.46 202.52
  L 93.82 202.46
  Z"
/>
<path fill="#ffffff" d="
  M 401.59 202.50
  A 0.75 0.75 0.0 0 1 400.84 201.75
  L 400.84 201.45
  A 4.59 3.83 -90.0 0 1 404.67 196.86
  L 405.17 196.86
  A 4.59 3.83 -90.0 0 1 409.00 201.45
  L 409.00 201.75
  A 0.75 0.75 0.0 0 1 408.25 202.50
  L 401.59 202.50
  Z"
/>
<path fill="#ffffff" d="
  M 442.60 202.48
  A 0.75 0.75 0.0 0 1 441.86 201.72
  L 441.86 201.08
  A 4.27 3.84 -89.6 0 1 445.73 196.84
  L 446.21 196.84
  A 4.27 3.84 -89.6 0 1 450.02 201.14
  L 450.02 201.78
  A 0.75 0.75 0.0 0 1 449.26 202.52
  L 442.60 202.48
  Z"
/>
<path fill="#ffffff" d="
  M 58.92 202.52
  A 0.84 0.84 0.0 0 1 58.07 201.69
  L 58.07 201.03
  A 4.06 3.69 89.6 0 1 61.73 196.94
  L 62.53 196.94
  A 4.06 3.69 89.6 0 1 66.25 200.97
  L 66.25 201.63
  A 0.84 0.84 0.0 0 1 65.42 202.48
  L 58.92 202.52
  Z"
/>
<rect fill="#ffffff" x="-3.80" y="-5.90" transform="translate(82.85,203.02) rotate(-0.7)" width="7.60" height="11.80" rx="2.88"/>
<path fill="#ffffff" d="
  M 118.83 202.51
  A 0.85 0.85 0.0 0 1 117.98 201.66
  L 117.98 201.01
  A 4.08 3.69 89.9 0 1 121.67 196.92
  L 122.45 196.92
  A 4.08 3.69 89.9 0 1 126.14 200.99
  L 126.14 201.64
  A 0.85 0.85 0.0 0 1 125.29 202.49
  L 118.83 202.51
  Z"
/>
<rect fill="#ffffff" x="137.11" y="196.99" width="8.08" height="12.14" rx="3.76"/>
<rect fill="#ffffff" x="-3.84" y="-5.92" transform="translate(155.35,203.08) rotate(0.2)" width="7.68" height="11.84" rx="2.59"/>
<path fill="#ffffff" d="
  M 165.77 202.47
  A 0.74 0.74 0.0 0 1 165.03 201.73
  L 165.03 201.15
  A 4.24 3.74 -89.9 0 1 168.77 196.92
  L 169.31 196.92
  A 4.24 3.74 -89.9 0 1 173.05 201.17
  L 173.05 201.75
  A 0.74 0.74 0.0 0 1 172.31 202.49
  L 165.77 202.47
  Z"
/>
<rect fill="#ffffff" x="-4.01" y="-6.02" transform="translate(211.94,203.05) rotate(0.3)" width="8.02" height="12.04" rx="3.68"/>
<rect fill="#ffffff" x="-3.93" y="-5.94" transform="translate(345.45,203.02) rotate(0.3)" width="7.86" height="11.88" rx="3.57"/>
<path fill="#ffffff" d="
  M 379.05 202.38
  A 0.62 0.62 0.0 0 1 378.44 201.75
  L 378.44 200.98
  A 3.99 3.33 -89.3 0 1 381.82 197.03
  L 383.20 197.05
  A 3.99 3.33 -89.3 0 1 386.48 201.08
  L 386.47 201.85
  A 0.62 0.62 0.0 0 1 385.85 202.46
  L 379.05 202.38
  Z"
/>
</svg>
